                    <svg width="347" height="188" viewBox="0 0 347 188" fill="none" xmlns="http://www.w3.org/2000/svg">
                        <path opacity="0.2" d="M133.059 115.854C98.2747 118.771 68.4157 105.246 61.4747 81.054C53.0147 51.566 81.7997 17.395 125.779 4.73095C161.235 -5.48005 195.736 1.40695 212.208 19.915C238.055 21.596 258.97 34.034 264.608 53.6969C272.651 81.728 246.608 113.828 206.448 125.397C197.084 128.124 187.384 129.526 177.632 129.563C159.9 129.561 144.02 124.641 133.059 115.854Z" fill="#D8E8FD"/>
                        <g opacity="0.3">
                        <path opacity="0.3" d="M128.431 107.755C130.779 108.191 134.983 101.961 134.763 96.3521C134.542 90.7434 129.356 91.8203 131.141 81.5628C132.926 71.3054 135.121 66.4671 124.91 57.4755C114.7 48.484 115.883 39.3591 107.681 40.3465C99.4795 41.3339 101.533 53.2058 107.355 61.2306C113.177 69.2555 112.713 71.9231 105.866 74.8508C99.0191 77.7785 111.807 87.0061 113.436 89.7201C115.064 92.434 114.255 99.7836 117.325 103.099C120.395 106.414 126.083 107.319 128.431 107.755Z" fill="url(#paint0_linear_0_1)"/>
                        <path opacity="0.3" d="M125.03 93.7069C123.78 91.623 119.362 85.4477 114.133 83.2148" stroke="#707070" stroke-width="3" stroke-miterlimit="10" stroke-linecap="round"/>
                        <path opacity="0.3" d="M122.207 78.8602C120.956 76.7781 125.919 71.7991 126.406 66.1257" stroke="#707070" stroke-width="3" stroke-miterlimit="10" stroke-linecap="round"/>
                        <path opacity="0.3" d="M130.84 119.587C130.308 118.701 129.435 113.787 128.115 108.281C123.979 91.0382 120.621 68.7623 113.202 56.3901" stroke="#707070" stroke-width="3" stroke-miterlimit="10" stroke-linecap="round"/>
                        </g>
                        <g opacity="0.3">
                        <path opacity="0.3" d="M212.771 127.153C212.64 119.501 218.62 95.7118 227.018 82.6093" stroke="#707070" stroke-width="3.00043" stroke-miterlimit="10" stroke-linecap="round"/>
                        <path opacity="0.3" d="M215.936 74.3397C216.986 73.7097 219.436 75.8709 221.413 79.1688C223.389 82.4667 224.138 85.6528 223.091 86.2826C222.043 86.9125 219.587 84.7462 217.612 81.4501C215.637 78.1539 214.886 74.9697 215.936 74.3397Z" fill="url(#paint1_linear_0_1)"/>
                        <path opacity="0.3" d="M225.323 87.5592C225.387 88.7834 228.545 89.6139 232.378 89.4144C236.211 89.2148 239.266 88.0607 239.203 86.8366C239.139 85.6125 235.98 84.7819 232.147 84.9815C228.315 85.181 225.259 86.3351 225.323 87.5592Z" fill="url(#paint2_linear_0_1)"/>
                        <path opacity="0.3" d="M221.356 97.372C221.356 98.5979 224.469 99.5916 228.308 99.5916C232.148 99.5916 235.26 98.5979 235.26 97.372C235.26 96.1461 232.148 95.1523 228.308 95.1523C224.469 95.1523 221.356 96.1461 221.356 97.372Z" fill="url(#paint3_linear_0_1)"/>
                        <path opacity="0.3" d="M218.162 107.224C218.162 108.449 221.274 109.443 225.114 109.443C228.953 109.443 232.066 108.449 232.066 107.224C232.066 105.998 228.953 105.004 225.114 105.004C221.274 105.004 218.162 105.998 218.162 107.224Z" fill="url(#paint4_linear_0_1)"/>
                        <path opacity="0.3" d="M235.099 69.3253C236.138 69.9749 235.327 73.1479 233.29 76.4093C231.253 79.6708 228.76 81.7891 227.722 81.1386C226.684 80.4882 227.492 77.3203 229.53 74.058C231.567 70.7956 234.062 68.6762 235.099 69.3253Z" fill="url(#paint5_linear_0_1)"/>
                        <path opacity="0.3" d="M209.552 85.9125C210.462 85.0937 213.28 86.7462 215.847 89.6057C218.414 92.4651 219.758 95.4482 218.849 96.267C217.94 97.0858 215.12 95.4325 212.551 92.5708C209.982 89.7092 208.641 86.7319 209.552 85.9125Z" fill="url(#paint6_linear_0_1)"/>
                        <path opacity="0.3" d="M205.095 97.2107C205.915 96.3006 208.889 97.6495 211.742 100.224C214.594 102.799 216.241 105.625 215.422 106.535C214.603 107.445 211.628 106.097 208.773 103.518C205.918 100.94 204.275 98.1201 205.095 97.2107Z" fill="url(#paint7_linear_0_1)"/>
                        </g>
                        <path opacity="0.473" d="M123.562 34.2498L142.739 19.5498" stroke="#707070" stroke-width="2" stroke-miterlimit="10" stroke-linecap="round" stroke-linejoin="round"/>
                        <path opacity="0.473" d="M123.751 41.6381L138.877 30.0381" stroke="#707070" stroke-width="2" stroke-miterlimit="10" stroke-linecap="round" stroke-linejoin="round"/>
                        <path opacity="0.473" d="M204.993 64.5359L214.582 57.1869C214.582 57.1869 212.182 59.0249 214.582 57.1869L224.17 49.8359" stroke="#707070" stroke-width="2" stroke-miterlimit="10" stroke-linecap="round" stroke-linejoin="round"/>
                        <path opacity="0.473" d="M205.182 71.9242L220.308 60.3242" stroke="#707070" stroke-width="2" stroke-miterlimit="10" stroke-linecap="round" stroke-linejoin="round"/>
                        <path d="M169.355 130.879C193.294 130.879 212.708 127.579 212.708 123.524C212.708 119.469 193.294 116.173 169.355 116.173C145.416 116.173 126.001 119.464 126.001 123.524C126.001 127.584 145.411 130.879 169.355 130.879Z" fill="#8673E6" fill-opacity="0.4"/>
                        <path d="M166.864 126.771C167.802 127.003 171.712 124.797 172.664 124.899C177.201 125.386 180.634 123.881 184.68 122.825C191.758 120.978 199.124 116.489 199.124 113.566C199.126 108.621 185.754 106.56 170.321 106.56C154.888 106.56 141.087 107.77 141.087 112.716C141.087 116.116 148.159 119.704 156.179 122.826C159.81 124.238 162.749 125.754 166.864 126.771Z" fill="#553DCC" fill-opacity="0.1"/>
                        <path d="M187.264 132.354C188.564 133.198 200.524 136.327 202.14 136.871C203.756 137.415 208.54 136.993 209.24 133.348C209.94 129.703 208.54 127.891 204.662 126.493C200.784 125.095 190.339 123.621 189.153 123.674C187.967 123.727 185.696 125.553 185.725 127.326C185.754 129.099 185.964 131.51 187.264 132.354Z" fill="url(#paint8_radial_0_1)"/>
                        <path d="M187.264 132.354C188.564 133.198 200.524 136.327 202.14 136.871C203.756 137.415 208.54 136.993 209.24 133.348C209.94 129.703 208.54 127.891 204.662 126.493C200.784 125.095 190.339 123.621 189.153 123.674C187.967 123.727 185.696 125.553 185.725 127.326C185.754 129.099 185.964 131.51 187.264 132.354Z" fill="url(#paint9_linear_0_1)"/>
                        <path d="M187.264 132.354C188.564 133.198 200.524 136.327 202.14 136.871C203.756 137.415 208.54 136.993 209.24 133.348C209.94 129.703 208.54 127.891 204.662 126.493C200.784 125.095 190.339 123.621 189.153 123.674C187.967 123.727 185.696 125.553 185.725 127.326C185.754 129.099 185.964 131.51 187.264 132.354Z" fill="#D8D8D8" fill-opacity="0.2"/>
                        <path opacity="0.142" d="M188.332 134.898C191.152 133.872 202.566 128.506 202.566 126.033C202.566 123.56 188.444 120.212 187.255 123.123C186.066 126.034 185.511 135.925 188.332 134.898Z" fill="#20355F"/>
                        <path d="M183.218 131.301L190.045 132.612C192.877 130.308 193.278 127.68 191.25 124.727C189.173 124.022 187.052 123.457 184.9 123.036L183.218 131.301Z" fill="url(#paint10_linear_0_1)"/>
                        <path d="M188.139 124.828C188.825 127.554 188.878 130.401 188.294 133.151C187.294 137.49 180.401 129.958 180.401 129.958L188.139 124.828Z" fill="url(#paint11_linear_0_1)"/>
                        <path d="M155.639 132.465C154.312 133.265 142.249 135.973 140.615 136.46C138.981 136.947 134.215 136.36 133.647 132.691C133.079 129.022 134.535 127.262 138.462 126C142.389 124.738 152.87 123.63 154.053 123.725C155.236 123.82 157.443 125.725 157.353 127.494C157.263 129.263 156.966 131.667 155.639 132.465Z" fill="url(#paint12_radial_0_1)"/>
                        <path d="M155.639 132.465C154.312 133.265 142.249 135.973 140.615 136.46C138.981 136.947 134.215 136.36 133.647 132.691C133.079 129.022 134.535 127.262 138.462 126C142.389 124.738 152.87 123.63 154.053 123.725C155.236 123.82 157.443 125.725 157.353 127.494C157.263 129.263 156.966 131.667 155.639 132.465Z" fill="url(#paint13_radial_0_1)"/>
                        <path d="M155.639 132.465C154.312 133.265 142.249 135.973 140.615 136.46C138.981 136.947 134.215 136.36 133.647 132.691C133.079 129.022 134.535 127.262 138.462 126C142.389 124.738 152.87 123.63 154.053 123.725C155.236 123.82 157.443 125.725 157.353 127.494C157.263 129.263 156.966 131.667 155.639 132.465Z" fill="url(#paint14_radial_0_1)"/>
                        <path opacity="0.142" d="M139.881 125.273C139.881 125.273 151.217 135.914 155.089 134.52C158.961 133.126 158.073 120.62 154.055 120.62C150.037 120.62 139.881 125.273 139.881 125.273Z" fill="#351C56"/>
                        <path d="M159.713 131.552L152.849 132.63C150.099 130.23 149.789 127.589 151.919 124.707C154.018 124.075 156.158 123.584 158.324 123.238L159.713 131.552Z" fill="url(#paint15_linear_0_1)"/>
                        <path d="M153.797 133.818V126.428C153.797 124.608 162.479 130.028 162.479 130.028C162.479 130.028 158.834 133.228 157.179 133.822C156.077 134.162 154.898 134.16 153.797 133.818V133.818Z" fill="url(#paint16_linear_0_1)"/>
                        <path d="M148.129 93.7199C148.129 94.0599 147.56 99.4089 145.349 102.12C142.57 105.537 133.723 103.508 134.973 106.188C138.834 114.458 157.825 124.248 170.672 124.248C181.089 124.248 194.988 119.635 206.52 107.356C208.389 105.366 195.514 105.767 188.712 100.941C187.433 100.034 186.188 97.8929 184.976 94.5189C160.411 92.7889 148.129 92.5226 148.129 93.7199Z" fill="url(#paint17_linear_0_1)"/>
                        <path d="M160.734 101.539C162.8 102.702 175.271 105.778 178.179 99.8318C181.087 93.8858 160.734 97.6968 160.734 97.6968C160.734 97.6968 158.667 100.378 160.734 101.539Z" fill="url(#paint18_linear_0_1)"/>
                        <path opacity="0.3" d="M172.187 110.777C172.187 107.711 173.452 104.249 176.942 100.411C180.432 96.5729 183.424 110.778 183.424 110.778C183.424 110.778 172.187 113.845 172.187 110.777Z" fill="url(#paint19_linear_0_1)"/>
                        <path opacity="0.3" d="M167.778 110.777C167.778 107.709 166.513 104.249 163.023 100.41C159.533 96.5712 156.541 110.777 156.541 110.777C156.541 110.777 167.778 113.845 167.778 110.777Z" fill="url(#paint20_linear_0_1)"/>
                        <path d="M177.624 43.1066H156.325V29.7236H177.625L177.624 43.1066Z" fill="#553DCC"/>
                        <path d="M161.783 37.4306C161.783 39.4516 161.935 40.4236 160.873 42.1966C159.811 43.9696 154.379 54.6476 158.081 59.4206C161.783 64.1936 176.996 64.5766 177.641 58.2796C178.286 51.9826 174.241 43.5436 173.041 41.1536C172.108 39.203 171.95 36.9711 172.599 34.9086C173.041 33.8726 161.783 35.4096 161.783 37.4306Z" fill="url(#paint21_linear_0_1)"/>
                        <path d="M168.098 61.7845C171.283 56.6705 172.324 53.9435 172.324 49.6945C172.324 45.4455 178.201 61.7845 178.201 61.7845C178.201 61.7845 164.912 66.8995 168.098 61.7845Z" fill="url(#paint22_linear_0_1)"/>
                        <path d="M161.706 37.8738C161.706 37.8738 173.831 47.5918 175.749 47.5918C177.667 47.5918 172.95 35.6328 172.95 35.6328L161.706 37.8738Z" fill="url(#paint23_linear_0_1)"/>
                        <path d="M167.316 39.0428H165.316C161.73 39.0428 157.583 35.4138 157.216 30.9378L156.423 21.3258C156.317 20.2916 156.431 19.2466 156.758 18.2599C157.085 17.2731 157.618 16.3669 158.321 15.601C159.024 14.8351 159.881 14.227 160.837 13.8167C161.792 13.4064 162.823 13.2033 163.863 13.2208H168.953C169.992 13.2033 171.024 13.4064 171.979 13.8167C172.934 14.227 173.791 14.8351 174.494 15.601C175.197 16.3669 175.73 17.2731 176.057 18.2599C176.385 19.2466 176.499 20.2916 176.393 21.3258L175.605 30.9428C175.238 35.4088 170.914 39.0338 167.316 39.0428Z" fill="url(#paint24_linear_0_1)"/>
                        <path opacity="0.15" d="M160.305 26.0986C160.847 26.57 161.533 26.8448 162.251 26.8789C162.969 26.9131 163.678 26.7044 164.263 26.2866" stroke="#1E3159" stroke-miterlimit="10" stroke-linecap="round" stroke-linejoin="round"/>
                        <path opacity="0.3" d="M164.64 34.7705C165.673 34.9368 166.719 35.0038 167.765 34.9705C167.765 34.9705 168.192 34.8925 168.599 34.7705" stroke="#1E3159" stroke-miterlimit="10" stroke-linecap="round" stroke-linejoin="round"/>
                        <path opacity="0.15" d="M168.599 26.0986C169.141 26.57 169.827 26.8448 170.545 26.8789C171.263 26.9131 171.972 26.7044 172.557 26.2866" stroke="#1E3159" stroke-miterlimit="10" stroke-linecap="round" stroke-linejoin="round"/>
                        <path opacity="0.1" d="M164.452 31.9416C164.796 31.7806 165.771 32.3186 165.771 32.3186C165.771 32.3186 166.554 31.9576 166.525 31.3766C166.496 30.7956 166.848 26.5926 166.902 26.0986C167.242 27.717 167.494 29.3528 167.656 30.9986C167.639 31.2146 168.41 32.1296 168.41 32.1296C167.827 32.5275 167.193 32.8443 166.525 33.0716C166.109 33.0706 164.108 32.1026 164.452 31.9416Z" fill="#233A67"/>
                        <path opacity="0.625" d="M158.886 17.8711C158.886 17.8711 158.406 30.6611 160.31 33.7451C162.214 36.8291 161.817 38.7011 161.817 38.7011L155.928 33.7451L158.886 17.8711Z" fill="#E38DEB"/>
                        <path opacity="0.2" d="M164.452 32.3189C164.852 32.4519 165.216 32.4119 165.583 32.6959C165.904 32.9493 166.304 33.0826 166.714 33.0729C167.051 33.0659 167.306 32.5599 167.656 32.5079C168.006 32.4559 168.474 32.3799 168.598 32.1309" stroke="#1E3159" stroke-miterlimit="10"/>
                        <path d="M159.496 15.6133L159.623 18.5703C159.639 18.9587 159.806 19.3256 160.086 19.5945C160.367 19.8634 160.741 20.0134 161.13 20.0133H171.404C171.602 20.0133 171.798 19.9743 171.981 19.8985C172.164 19.8227 172.33 19.7117 172.47 19.5716C172.61 19.4316 172.721 19.2654 172.797 19.0824C172.873 18.8994 172.912 18.7033 172.912 18.5053V15.4253C174.183 20.0667 174.929 24.8363 175.136 29.6443C175.136 34.3343 176.017 41.7533 176.116 43.6003C176.215 45.4473 182.958 49.3473 184.127 48.1233C185.296 46.8993 180.704 27.6033 179.473 20.4673C178.242 13.3313 173.924 6.88731 165.277 7.19831C156.63 7.50931 153.379 16.6293 152.806 21.1443C152.233 25.6593 149.168 46.5733 150.211 48.1243C151.254 49.6753 157.611 45.2623 157.611 43.6013V29.6443C157.612 24.9553 159.496 15.6133 159.496 15.6133Z" fill="#735CE6"/>
                        <path opacity="0.484" d="M166.337 11.2085C171.958 11.2085 176.516 9.39395 176.516 7.15554C176.516 4.91713 171.958 3.10254 166.337 3.10254C160.715 3.10254 156.158 4.91713 156.158 7.15554C156.158 9.39395 160.715 11.2085 166.337 11.2085Z" fill="#735CE6"/>
                        <path d="M158.755 54.1224C158.755 58.3804 162.266 61.1104 167.769 61.1104C173.272 61.1104 176.712 58.6844 176.993 54.0374C178.761 58.6954 179.257 73.2434 178.481 97.6814C175.55 99.2581 172.271 100.074 168.944 100.054C164.164 99.9744 158.981 98.0344 157.663 95.3004C156.345 92.5664 158.755 49.8644 158.755 54.1224Z" fill="white"/>
                        <g opacity="0.328">
                        <path opacity="0.328" d="M174.362 67.0428C172.919 72.3588 169.42 78.7528 165.934 81.1608C162.448 83.5688 169.034 85.2438 168.047 86.5608C165.955 89.0763 163.67 91.4245 161.213 93.5838C159.113 95.3168 161.213 100.753 161.213 100.753C161.213 100.753 179.513 107.587 180.472 100.753C181.431 93.9188 175.801 61.7268 174.362 67.0428Z" fill="url(#paint25_linear_0_1)"/>
                        <path opacity="0.328" d="M174.362 67.0428C172.919 72.3588 169.42 78.7528 165.934 81.1608C162.448 83.5688 169.034 85.2438 168.047 86.5608C165.955 89.0763 163.67 91.4245 161.213 93.5838C159.113 95.3168 161.213 100.753 161.213 100.753C161.213 100.753 179.513 107.587 180.472 100.753C181.431 93.9188 175.801 61.7268 174.362 67.0428Z" fill="url(#paint26_linear_0_1)"/>
                        </g>
                        <path d="M127.625 86.4059C125.234 88.4469 124.325 89.0909 123.825 90.9349C123.325 92.7789 125.5 98.0779 128.388 100.447C131.276 102.816 131.742 99.3139 131.714 99.3139C131.686 99.3139 130.15 94.1139 130.646 92.7769C131.142 91.4399 132.713 90.4769 133.035 89.5769C133.357 88.6769 130.016 84.3669 127.625 86.4059Z" fill="url(#paint27_linear_0_1)"/>
                        <path d="M214.197 86.4059C216.588 88.4469 217.497 89.0909 217.997 90.9349C218.497 92.7789 216.317 98.0779 213.427 100.447C210.537 102.816 210.073 99.3139 210.101 99.3139C210.129 99.3139 211.665 94.1139 211.169 92.7769C210.673 91.4399 209.102 90.4769 208.779 89.5769C208.456 88.6769 211.804 84.3669 214.197 86.4059Z" fill="url(#paint28_linear_0_1)"/>
                        <path d="M126.82 86.8302C129.733 84.6502 132.48 82.2559 135.038 79.6672C135.691 79.0572 141.916 54.2872 144.147 51.6782C146.378 49.0692 160.154 41.8242 161.62 40.5322C161.513 41.8322 157.878 46.5322 165.334 48.2762C159.049 54.2342 161.162 59.4082 161.62 63.7522C162.078 68.0962 161.162 74.9692 161.162 81.4982C161.162 88.0272 161.162 90.9342 161.62 100.459C162.078 109.984 165.114 112.043 163.367 113.783C161.62 115.523 150.599 111.5 148.083 110.483C145.567 109.466 144.958 103.034 146.52 96.8162C147.737 92.2435 148.462 87.5539 148.684 82.8272C148.684 80.4272 149.336 72.5322 148.084 75.8132C146.832 79.0942 145.284 86.0712 143.124 89.0602C140.964 92.0492 137.703 90.6172 133.374 90.6172C131.64 85.3472 128.249 85.9092 126.822 86.8312L126.563 87.0192C126.645 86.9513 126.73 86.8882 126.82 86.8302Z" fill="#5598F6"/>
                        <path d="M140.325 79.386C140.845 79.386 141.267 78.9642 141.267 78.444C141.267 77.9237 140.845 77.502 140.325 77.502C139.804 77.502 139.383 77.9237 139.383 78.444C139.383 78.9642 139.804 79.386 140.325 79.386Z" fill="white"/>
                        <path d="M144.283 73.5422C144.803 73.5422 145.225 73.1205 145.225 72.6002C145.225 72.08 144.803 71.6582 144.283 71.6582C143.762 71.6582 143.341 72.08 143.341 72.6002C143.341 73.1205 143.762 73.5422 144.283 73.5422Z" fill="white"/>
                        <path d="M146.733 64.1174C147.253 64.1174 147.675 63.6957 147.675 63.1754C147.675 62.6551 147.253 62.2334 146.733 62.2334C146.212 62.2334 145.791 62.6551 145.791 63.1754C145.791 63.6957 146.212 64.1174 146.733 64.1174Z" fill="white"/>
                        <path d="M150.88 67.511C151.4 67.511 151.822 67.0892 151.822 66.569C151.822 66.0487 151.4 65.627 150.88 65.627C150.359 65.627 149.938 66.0487 149.938 66.569C149.938 67.0892 150.359 67.511 150.88 67.511Z" fill="white"/>
                        <path d="M157.289 67.6985C157.809 67.6985 158.231 67.2767 158.231 66.7565C158.231 66.2362 157.809 65.8145 157.289 65.8145C156.768 65.8145 156.347 66.2362 156.347 66.7565C156.347 67.2767 156.768 67.6985 157.289 67.6985Z" fill="white"/>
                        <path d="M156.723 60.7248C157.243 60.7248 157.665 60.3031 157.665 59.7828C157.665 59.2626 157.243 58.8408 156.723 58.8408C156.202 58.8408 155.781 59.2626 155.781 59.7828C155.781 60.3031 156.202 60.7248 156.723 60.7248Z" fill="white"/>
                        <path d="M150.315 56.7668C150.835 56.7668 151.257 56.3451 151.257 55.8248C151.257 55.3046 150.835 54.8828 150.315 54.8828C149.794 54.8828 149.373 55.3046 149.373 55.8248C149.373 56.3451 149.794 56.7668 150.315 56.7668Z" fill="white"/>
                        <path d="M158.231 54.1281C158.751 54.1281 159.173 53.7064 159.173 53.1861C159.173 52.6659 158.751 52.2441 158.231 52.2441C157.71 52.2441 157.289 52.6659 157.289 53.1861C157.289 53.7064 157.71 54.1281 158.231 54.1281Z" fill="white"/>
                        <path d="M153.519 49.9807C154.039 49.9807 154.461 49.5589 154.461 49.0387C154.461 48.5184 154.039 48.0967 153.519 48.0967C152.998 48.0967 152.577 48.5184 152.577 49.0387C152.577 49.5589 152.998 49.9807 153.519 49.9807Z" fill="white"/>
                        <path d="M145.791 50.9231C146.311 50.9231 146.733 50.5013 146.733 49.9811C146.733 49.4608 146.311 49.0391 145.791 49.0391C145.27 49.0391 144.849 49.4608 144.849 49.9811C144.849 50.5013 145.27 50.9231 145.791 50.9231Z" fill="white"/>
                        <path d="M144.094 57.5207C144.614 57.5207 145.036 57.099 145.036 56.5787C145.036 56.0585 144.614 55.6367 144.094 55.6367C143.573 55.6367 143.152 56.0585 143.152 56.5787C143.152 57.099 143.573 57.5207 144.094 57.5207Z" fill="white"/>
                        <path d="M140.325 61.8557C140.845 61.8557 141.267 61.4339 141.267 60.9137C141.267 60.3934 140.845 59.9717 140.325 59.9717C139.804 59.9717 139.383 60.3934 139.383 60.9137C139.383 61.4339 139.804 61.8557 140.325 61.8557Z" fill="white"/>
                        <path d="M140.325 68.4524C140.845 68.4524 141.267 68.0306 141.267 67.5104C141.267 66.9901 140.845 66.5684 140.325 66.5684C139.804 66.5684 139.383 66.9901 139.383 67.5104C139.383 68.0306 139.804 68.4524 140.325 68.4524Z" fill="white"/>
                        <path d="M136.555 74.8615C137.075 74.8615 137.497 74.4398 137.497 73.9195C137.497 73.3993 137.075 72.9775 136.555 72.9775C136.034 72.9775 135.613 73.3993 135.613 73.9195C135.613 74.4398 136.034 74.8615 136.555 74.8615Z" fill="white"/>
                        <path d="M135.424 85.2287C135.944 85.2287 136.366 84.807 136.366 84.2867C136.366 83.7665 135.944 83.3447 135.424 83.3447C134.903 83.3447 134.482 83.7665 134.482 84.2867C134.482 84.807 134.903 85.2287 135.424 85.2287Z" fill="white"/>
                        <path d="M129.392 85.6057C129.912 85.6057 130.334 85.1839 130.334 84.6637C130.334 84.1434 129.912 83.7217 129.392 83.7217C128.871 83.7217 128.45 84.1434 128.45 84.6637C128.45 85.1839 128.871 85.6057 129.392 85.6057Z" fill="white"/>
                        <path d="M135.801 89.5637C136.321 89.5637 136.743 89.1419 136.743 88.6217C136.743 88.1014 136.321 87.6797 135.801 87.6797C135.28 87.6797 134.859 88.1014 134.859 88.6217C134.859 89.1419 135.28 89.5637 135.801 89.5637Z" fill="white"/>
                        <path d="M142.398 86.549C142.918 86.549 143.34 86.1273 143.34 85.607C143.34 85.0868 142.918 84.665 142.398 84.665C141.877 84.665 141.456 85.0868 141.456 85.607C141.456 86.1273 141.877 86.549 142.398 86.549Z" fill="white"/>
                        <path d="M157.289 75.2385C157.809 75.2385 158.231 74.8167 158.231 74.2965C158.231 73.7762 157.809 73.3545 157.289 73.3545C156.768 73.3545 156.347 73.7762 156.347 74.2965C156.347 74.8167 156.768 75.2385 157.289 75.2385Z" fill="white"/>
                        <path d="M150.692 73.9201C151.212 73.9201 151.634 73.4984 151.634 72.9781C151.634 72.4579 151.212 72.0361 150.692 72.0361C150.171 72.0361 149.75 72.4579 149.75 72.9781C149.75 73.4984 150.171 73.9201 150.692 73.9201Z" fill="white"/>
                        <path d="M153.142 83.1555C153.662 83.1555 154.084 82.7337 154.084 82.2135C154.084 81.6932 153.662 81.2715 153.142 81.2715C152.621 81.2715 152.2 81.6932 152.2 82.2135C152.2 82.7337 152.621 83.1555 153.142 83.1555Z" fill="white"/>
                        <path d="M159.174 82.4016C159.694 82.4016 160.116 81.9798 160.116 81.4596C160.116 80.9393 159.694 80.5176 159.174 80.5176C158.653 80.5176 158.232 80.9393 158.232 81.4596C158.232 81.9798 158.653 82.4016 159.174 82.4016Z" fill="white"/>
                        <path d="M159.174 92.3918C159.694 92.3918 160.116 91.9701 160.116 91.4498C160.116 90.9296 159.694 90.5078 159.174 90.5078C158.653 90.5078 158.232 90.9296 158.232 91.4498C158.232 91.9701 158.653 92.3918 159.174 92.3918Z" fill="white"/>
                        <path d="M151.069 93.5227C151.589 93.5227 152.011 93.1009 152.011 92.5807C152.011 92.0604 151.589 91.6387 151.069 91.6387C150.548 91.6387 150.127 92.0604 150.127 92.5807C150.127 93.1009 150.548 93.5227 151.069 93.5227Z" fill="white"/>
                        <path d="M154.65 88.4328C155.17 88.4328 155.592 88.0111 155.592 87.4908C155.592 86.9706 155.17 86.5488 154.65 86.5488C154.129 86.5488 153.708 86.9706 153.708 87.4908C153.708 88.0111 154.129 88.4328 154.65 88.4328Z" fill="white"/>
                        <path d="M157.666 99.1779C158.186 99.1779 158.608 98.7562 158.608 98.2359C158.608 97.7157 158.186 97.2939 157.666 97.2939C157.145 97.2939 156.724 97.7157 156.724 98.2359C156.724 98.7562 157.145 99.1779 157.666 99.1779Z" fill="white"/>
                        <path d="M152.306 98.3465C149.908 88.9215 151.147 77.8085 149.148 75.2575C147.149 72.7065 148.119 84.0515 148.119 84.0515L145.69 95.6245C145.69 95.6245 154.703 107.771 152.306 98.3465Z" fill="url(#paint29_linear_0_1)"/>
                        <path opacity="0.5" d="M148.016 75.9919C144.884 78.9119 143.507 84.2189 141.786 85.7129C140.065 87.2069 133.61 90.5609 133.61 90.5609L144.474 92.6609C144.474 92.6609 151.147 73.0729 148.016 75.9919Z" fill="url(#paint30_linear_0_1)"/>
                        <path d="M172.633 40.2715C174.099 41.5635 187.999 49.0575 190.233 51.6655C192.467 54.2735 199.233 80.8745 199.886 81.4845C200.539 82.0945 210.959 85.0765 213.728 85.9735C212.658 85.9735 209.242 87.2635 211.337 91.8735C213.564 92.5435 194.543 94.8615 192.388 91.8735C190.233 88.8855 187.544 79.0805 186.289 75.7995C185.034 72.5185 186.289 79.0805 186.289 81.4855C186.289 83.8905 186.289 91.8735 187.852 96.8075C189.415 101.741 188.806 109.461 186.289 110.474C183.772 111.487 177.735 113.834 177.735 110.474C177.735 110.474 175.361 102.422 175.335 98.0625C175.314 94.6905 174.229 81.3965 173.887 77.2625C172.998 66.5135 172.214 66.2625 172.458 63.9515C172.916 59.6075 175.324 54.2215 169.04 48.2635C176.498 46.5175 172.884 41.5545 172.633 40.2715Z" fill="#5598F6"/>
                        <path d="M179.719 51.0988C180.239 51.0988 180.661 50.6771 180.661 50.1568C180.661 49.6366 180.239 49.2148 179.719 49.2148C179.198 49.2148 178.777 49.6366 178.777 50.1568C178.777 50.6771 179.198 51.0988 179.719 51.0988Z" fill="white"/>
                        <path d="M187.636 50.5334C188.156 50.5334 188.578 50.1117 188.578 49.5914C188.578 49.0712 188.156 48.6494 187.636 48.6494C187.115 48.6494 186.694 49.0712 186.694 49.5914C186.694 50.1117 187.115 50.5334 187.636 50.5334Z" fill="white"/>
                        <path d="M189.709 57.6965C190.229 57.6965 190.651 57.2748 190.651 56.7545C190.651 56.2342 190.229 55.8125 189.709 55.8125C189.188 55.8125 188.767 56.2342 188.767 56.7545C188.767 57.2748 189.188 57.6965 189.709 57.6965Z" fill="white"/>
                        <path d="M183.489 57.6965C184.009 57.6965 184.431 57.2748 184.431 56.7545C184.431 56.2342 184.009 55.8125 183.489 55.8125C182.969 55.8125 182.547 56.2342 182.547 56.7545C182.547 57.2748 182.969 57.6965 183.489 57.6965Z" fill="white"/>
                        <path d="M175.195 55.6223C175.715 55.6223 176.137 55.2005 176.137 54.6803C176.137 54.16 175.715 53.7383 175.195 53.7383C174.674 53.7383 174.253 54.16 174.253 54.6803C174.253 55.2005 174.674 55.6223 175.195 55.6223Z" fill="white"/>
                        <path d="M177.457 62.2199C177.977 62.2199 178.399 61.7982 178.399 61.2779C178.399 60.7577 177.977 60.3359 177.457 60.3359C176.937 60.3359 176.515 60.7577 176.515 61.2779C176.515 61.7982 176.937 62.2199 177.457 62.2199Z" fill="white"/>
                        <path d="M187.447 64.6701C187.967 64.6701 188.389 64.2484 188.389 63.7281C188.389 63.2079 187.967 62.7861 187.447 62.7861C186.927 62.7861 186.505 63.2079 186.505 63.7281C186.505 64.2484 186.927 64.6701 187.447 64.6701Z" fill="white"/>
                        <path d="M194.233 61.6545C194.753 61.6545 195.175 61.2328 195.175 60.7125C195.175 60.1923 194.753 59.7705 194.233 59.7705C193.713 59.7705 193.291 60.1923 193.291 60.7125C193.291 61.2328 193.713 61.6545 194.233 61.6545Z" fill="white"/>
                        <path d="M194.044 68.6281C194.564 68.6281 194.986 68.2064 194.986 67.6861C194.986 67.1659 194.564 66.7441 194.044 66.7441C193.523 66.7441 193.102 67.1659 193.102 67.6861C193.102 68.2064 193.523 68.6281 194.044 68.6281Z" fill="white"/>
                        <path d="M183.489 68.4406C184.009 68.4406 184.431 68.0189 184.431 67.4986C184.431 66.9784 184.009 66.5566 183.489 66.5566C182.969 66.5566 182.547 66.9784 182.547 67.4986C182.547 68.0189 182.969 68.4406 183.489 68.4406Z" fill="white"/>
                        <path d="M177.08 69.0051C177.6 69.0051 178.022 68.5833 178.022 68.0631C178.022 67.5428 177.6 67.1211 177.08 67.1211C176.56 67.1211 176.138 67.5428 176.138 68.0631C176.138 68.5833 176.56 69.0051 177.08 69.0051Z" fill="white"/>
                        <path d="M178.022 76.7336C178.542 76.7336 178.964 76.3119 178.964 75.7916C178.964 75.2714 178.542 74.8496 178.022 74.8496C177.502 74.8496 177.08 75.2714 177.08 75.7916C177.08 76.3119 177.502 76.7336 178.022 76.7336Z" fill="white"/>
                        <path d="M176.703 83.8967C177.223 83.8967 177.645 83.4749 177.645 82.9547C177.645 82.4344 177.223 82.0127 176.703 82.0127C176.182 82.0127 175.761 82.4344 175.761 82.9547C175.761 83.4749 176.182 83.8967 176.703 83.8967Z" fill="white"/>
                        <path d="M182.358 83.8967C182.878 83.8967 183.3 83.4749 183.3 82.9547C183.3 82.4344 182.878 82.0127 182.358 82.0127C181.838 82.0127 181.416 82.4344 181.416 82.9547C181.416 83.4749 181.838 83.8967 182.358 83.8967Z" fill="white"/>
                        <path d="M181.604 89.3625C182.124 89.3625 182.546 88.9408 182.546 88.4205C182.546 87.9003 182.124 87.4785 181.604 87.4785C181.083 87.4785 180.662 87.9003 180.662 88.4205C180.662 88.9408 181.083 89.3625 181.604 89.3625Z" fill="white"/>
                        <path d="M177.645 93.6985C178.165 93.6985 178.587 93.2767 178.587 92.7565C178.587 92.2362 178.165 91.8145 177.645 91.8145C177.125 91.8145 176.703 92.2362 176.703 92.7565C176.703 93.2767 177.125 93.6985 177.645 93.6985Z" fill="white"/>
                        <path d="M179.342 100.672C179.862 100.672 180.284 100.25 180.284 99.7301C180.284 99.2098 179.862 98.7881 179.342 98.7881C178.821 98.7881 178.4 99.2098 178.4 99.7301C178.4 100.25 178.821 100.672 179.342 100.672Z" fill="white"/>
                        <path d="M185.939 98.9768C186.459 98.9768 186.881 98.555 186.881 98.0348C186.881 97.5145 186.459 97.0928 185.939 97.0928C185.419 97.0928 184.997 97.5145 184.997 98.0348C184.997 98.555 185.419 98.9768 185.939 98.9768Z" fill="white"/>
                        <path d="M186.316 93.3215C186.836 93.3215 187.258 92.8998 187.258 92.3795C187.258 91.8592 186.836 91.4375 186.316 91.4375C185.795 91.4375 185.374 91.8592 185.374 92.3795C185.374 92.8998 185.795 93.3215 186.316 93.3215Z" fill="white"/>
                        <path d="M184.054 74.6604C184.574 74.6604 184.996 74.2386 184.996 73.7184C184.996 73.1981 184.574 72.7764 184.054 72.7764C183.534 72.7764 183.112 73.1981 183.112 73.7184C183.112 74.2386 183.534 74.6604 184.054 74.6604Z" fill="white"/>
                        <path d="M190.463 74.0949C190.983 74.0949 191.405 73.6732 191.405 73.1529C191.405 72.6327 190.983 72.2109 190.463 72.2109C189.942 72.2109 189.521 72.6327 189.521 73.1529C189.521 73.6732 189.942 74.0949 190.463 74.0949Z" fill="white"/>
                        <path d="M197.249 73.5295C197.769 73.5295 198.191 73.1078 198.191 72.5875C198.191 72.0673 197.769 71.6455 197.249 71.6455C196.729 71.6455 196.307 72.0673 196.307 72.5875C196.307 73.1078 196.729 73.5295 197.249 73.5295Z" fill="white"/>
                        <path d="M194.798 79.3723C195.318 79.3723 195.74 78.9505 195.74 78.4303C195.74 77.91 195.318 77.4883 194.798 77.4883C194.278 77.4883 193.856 77.91 193.856 78.4303C193.856 78.9505 194.278 79.3723 194.798 79.3723Z" fill="white"/>
                        <path d="M193.29 86.7248C193.81 86.7248 194.232 86.3031 194.232 85.7828C194.232 85.2626 193.81 84.8408 193.29 84.8408C192.769 84.8408 192.348 85.2626 192.348 85.7828C192.348 86.3031 192.769 86.7248 193.29 86.7248Z" fill="white"/>
                        <path d="M200.265 84.6506C200.785 84.6506 201.207 84.2289 201.207 83.7086C201.207 83.1883 200.785 82.7666 200.265 82.7666C199.745 82.7666 199.323 83.1883 199.323 83.7086C199.323 84.2289 199.745 84.6506 200.265 84.6506Z" fill="white"/>
                        <path d="M200.453 89.174C200.973 89.174 201.395 88.7523 201.395 88.232C201.395 87.7118 200.973 87.29 200.453 87.29C199.932 87.29 199.511 87.7118 199.511 88.232C199.511 88.7523 199.932 89.174 200.453 89.174Z" fill="white"/>
                        <path d="M207.993 87.6662C208.513 87.6662 208.935 87.2445 208.935 86.7242C208.935 86.204 208.513 85.7822 207.993 85.7822C207.472 85.7822 207.051 86.204 207.051 86.7242C207.051 87.2445 207.472 87.6662 207.993 87.6662Z" fill="white"/>
                        <path d="M179.289 104.438C179.289 99.0004 184.645 83.5064 184.91 81.5944C185.175 79.6824 185.853 75.1064 185.853 75.1064L190.166 94.0004V99.3824C190.166 99.3824 179.289 109.876 179.289 104.438Z" fill="#D99F2B" fill-opacity="0.21"/>
                        <path d="M185.943 75.3462C187.536 78.1202 193.364 87.1902 195.288 88.4782C197.212 89.7662 202.37 91.1132 202.37 91.1132L192.545 94.4132L190.129 89.9892C190.129 89.9892 184.351 72.5722 185.943 75.3462Z" fill="#D99F2B" fill-opacity="0.28"/>
                        <path d="M154.899 122.96C157.848 119.86 188.232 96.3262 194.399 93.3252C200.566 90.3242 209.699 87.3552 212.734 92.4602C215.769 97.5652 212.527 102.127 205.626 108.337C198.725 114.547 165.31 129.218 160.396 131.257C155.482 133.296 151.951 126.06 154.899 122.96Z" fill="#A1B8E3"/>
                        <path d="M154.899 122.96C157.848 119.86 188.232 96.3262 194.399 93.3252C200.566 90.3242 209.699 87.3552 212.734 92.4602C215.769 97.5652 212.527 102.127 205.626 108.337C198.725 114.547 165.31 129.218 160.396 131.257C155.482 133.296 151.951 126.06 154.899 122.96Z" fill="url(#paint31_linear_0_1)"/>
                        <path d="M154.899 122.96C157.848 119.86 188.232 96.3262 194.399 93.3252C200.566 90.3242 209.699 87.3552 212.734 92.4602C215.769 97.5652 212.527 102.127 205.626 108.337C198.725 114.547 165.31 129.218 160.396 131.257C155.482 133.296 151.951 126.06 154.899 122.96Z" fill="url(#paint32_linear_0_1)"/>
                        <path opacity="0.3" d="M170.988 127.374C164.009 126.729 153.834 121.247 153.834 121.247L160.345 116.84L172.317 125.246C172.317 125.246 177.966 128.02 170.988 127.374Z" fill="url(#paint33_linear_0_1)"/>
                        <path d="M168.769 110.011C171.14 110.668 184.52 118.483 187.851 119.613C191.182 120.743 185.68 124.353 183.351 125.33C181.022 126.307 167.128 114.679 167.83 112.882C168.532 111.085 166.398 109.353 168.769 110.011Z" fill="#738FC4"/>
                        <path d="M187.161 122.96C184.212 119.86 153.828 96.3262 147.661 93.3252C141.494 90.3242 132.361 87.3552 129.326 92.4602C126.291 97.5652 129.532 102.127 136.434 108.337C143.336 114.547 176.744 129.218 181.66 131.256C186.576 133.294 190.11 126.06 187.161 122.96Z" fill="#A1B8E3"/>
                        <path d="M187.161 122.96C184.212 119.86 153.828 96.3262 147.661 93.3252C141.494 90.3242 132.361 87.3552 129.326 92.4602C126.291 97.5652 129.532 102.127 136.434 108.337C143.336 114.547 176.744 129.218 181.66 131.256C186.576 133.294 190.11 126.06 187.161 122.96Z" fill="url(#paint34_linear_0_1)"/>
                        <path d="M187.161 122.96C184.212 119.86 153.828 96.3262 147.661 93.3252C141.494 90.3242 132.361 87.3552 129.326 92.4602C126.291 97.5652 129.532 102.127 136.434 108.337C143.336 114.547 176.744 129.218 181.66 131.256C186.576 133.294 190.11 126.06 187.161 122.96Z" fill="url(#paint35_linear_0_1)"/>
                        <path d="M187.161 122.96C184.212 119.86 153.828 96.3262 147.661 93.3252C141.494 90.3242 132.361 87.3552 129.326 92.4602C126.291 97.5652 129.532 102.127 136.434 108.337C143.336 114.547 176.744 129.218 181.66 131.256C186.576 133.294 190.11 126.06 187.161 122.96Z" fill="url(#paint36_linear_0_1)"/>
                        <path d="M187.161 122.96C184.212 119.86 153.828 96.3262 147.661 93.3252C141.494 90.3242 132.361 87.3552 129.326 92.4602C126.291 97.5652 129.532 102.127 136.434 108.337C143.336 114.547 176.744 129.218 181.66 131.256C186.576 133.294 190.11 126.06 187.161 122.96Z" fill="url(#paint37_linear_0_1)"/>
                        <path d="M161.647 40.3701C158.883 42.5431 158.439 46.6941 158.719 48.6331C159.251 51.0508 160.014 53.4122 160.995 55.6851C161.63 52.7629 163.188 50.1224 165.439 48.1531C162.993 47.2291 160.277 45.4851 161.647 40.3701Z" fill="#0D6CF2"/>
                        <path d="M172.614 40.1807C175.378 42.3537 175.814 46.5047 175.542 48.4437C175.009 50.8613 174.247 53.2227 173.266 55.4957C172.632 52.5741 171.075 49.9336 168.827 47.9637C171.268 47.0397 173.984 45.2957 172.614 40.1807Z" fill="#0D6CF2"/>
                        <path d="M243.279 142.144L224.717 133.965C224.537 133.887 224.387 133.754 224.286 133.586C224.186 133.417 224.14 133.222 224.156 133.027C224.172 132.831 224.248 132.646 224.375 132.496C224.501 132.346 224.671 132.239 224.861 132.19L260.397 122.983L279.547 131.704L243.279 142.144Z" fill="url(#paint38_linear_0_1)"/>
                        <path d="M286.655 103.73L253.001 110.208C252.468 110.311 251.977 110.564 251.584 110.938C251.192 111.312 250.915 111.791 250.788 112.318L243.524 142.232L278.065 133.628C278.476 133.526 278.854 133.319 279.161 133.027C279.468 132.735 279.695 132.368 279.818 131.962L287.952 105.169C288.008 104.982 288.016 104.784 287.973 104.594C287.931 104.403 287.84 104.227 287.709 104.082C287.578 103.937 287.412 103.828 287.227 103.767C287.041 103.705 286.843 103.693 286.652 103.73H286.655Z" fill="url(#paint39_linear_0_1)"/>
                        <path d="M268.173 125.288C266.565 126.347 264.754 126.58 263.81 125.145C262.866 123.71 263.988 121.803 265.597 120.745C267.206 119.687 268.829 119.477 269.773 120.912C270.717 122.347 269.782 124.228 268.173 125.288Z" fill="#D6E3FA"/>
                        <path opacity="0.7" d="M85.0557 140.112C91.3017 140.112 96.3657 141.212 96.3657 142.562C96.3657 143.912 91.3017 145.012 85.0557 145.012C78.8097 145.012 73.7457 143.912 73.7457 142.562C73.7457 141.212 78.8087 140.112 85.0557 140.112Z" fill="url(#paint40_linear_0_1)"/>
                        <path d="M100.126 128.307C100.992 129.804 101.45 131.502 101.454 133.232C101.454 139.532 95.3777 144.632 87.8827 144.632C80.3877 144.632 74.3107 139.531 74.3107 133.233C74.3161 131.402 74.8284 129.608 75.7907 128.05C81.8027 129.001 93.7697 128.939 100.126 128.307Z" fill="url(#paint41_linear_0_1)"/>
                        <path d="M87.9767 125.787C94.7957 125.787 100.323 127.095 100.323 128.709C100.323 130.323 94.7957 131.63 87.9767 131.63C81.1577 131.63 75.6307 130.322 75.6307 128.709C75.6307 127.096 81.1587 125.787 87.9767 125.787Z" fill="url(#paint42_linear_0_1)"/>
                        <path d="M86.9397 126.541C85.9138 119.72 83.1194 113.286 78.8347 107.88C75.5497 103.605 75.5387 93.1949 75.0647 92.0469C77.6417 92.9329 82.2727 95.2179 86.9397 101.66C91.8327 108.413 88.7287 122.185 86.9397 126.541Z" fill="url(#paint43_linear_0_1)"/>
                        <path opacity="0.5" d="M86.7517 126.541C87.2657 115.199 85.8537 108.041 81.4137 101.283" stroke="#48A614" stroke-width="3" stroke-miterlimit="10"/>
                        <path d="M86.9607 131.33C83.884 126.473 79.5889 122.505 74.5027 119.822C70.5597 117.666 67.0517 109.73 66.3037 109.017C68.5687 108.827 72.8697 109.017 78.5967 112.359C84.6007 115.862 86.8617 127.407 86.9607 131.33Z" fill="url(#paint44_linear_0_1)"/>
                        <path opacity="0.5" d="M86.8167 131.395C83.3967 122.572 79.9127 117.588 74.2537 113.926" stroke="#48A614" stroke-width="3" stroke-miterlimit="10"/>
                        <path d="M88.4567 131.791C90.8905 126.556 94.6543 122.05 99.3727 118.722C103.021 116.066 105.485 107.712 106.137 106.903C103.856 107.003 99.5957 107.747 94.3257 111.816C88.8007 116.08 88.0467 127.868 88.4567 131.791Z" fill="url(#paint45_linear_0_1)"/>
                        <path opacity="0.5" d="M87.9787 131.78C90.2407 122.552 93.0657 117.141 98.2257 112.765" stroke="#48A614" stroke-width="3" stroke-miterlimit="10"/>
                        <path d="M12.9304 168.455V183H10.2741L3.94602 173.845H3.83949V183H0.764205V168.455H3.46307L9.74148 177.602H9.86932V168.455H12.9304ZM20.386 183.213C19.2638 183.213 18.2979 182.986 17.4883 182.531C16.6834 182.072 16.0631 181.423 15.6275 180.585C15.1919 179.742 14.9741 178.746 14.9741 177.595C14.9741 176.473 15.1919 175.488 15.6275 174.641C16.0631 173.793 16.6763 173.133 17.467 172.659C18.2624 172.186 19.1952 171.949 20.2653 171.949C20.985 171.949 21.6549 172.065 22.2752 172.297C22.9002 172.524 23.4447 172.867 23.9087 173.327C24.3775 173.786 24.7421 174.364 25.0025 175.06C25.2629 175.751 25.3931 176.561 25.3931 177.489V178.32H16.1815V176.445H22.5451C22.5451 176.009 22.4504 175.623 22.261 175.287C22.0716 174.951 21.8088 174.688 21.4727 174.499C21.1412 174.304 20.7553 174.207 20.315 174.207C19.8557 174.207 19.4485 174.314 19.0934 174.527C18.743 174.735 18.4684 175.017 18.2695 175.372C18.0707 175.723 17.9689 176.113 17.9641 176.544V178.327C17.9641 178.866 18.0636 179.333 18.2624 179.726C18.466 180.119 18.7525 180.422 19.1218 180.635C19.4911 180.848 19.9291 180.955 20.4357 180.955C20.7719 180.955 21.0797 180.907 21.359 180.812C21.6384 180.718 21.8775 180.576 22.0763 180.386C22.2752 180.197 22.4267 179.965 22.5309 179.69L25.3292 179.875C25.1871 180.547 24.896 181.134 24.4556 181.636C24.02 182.134 23.4566 182.522 22.7653 182.801C22.0787 183.076 21.2856 183.213 20.386 183.213ZM30.3931 176.693V183H27.3675V172.091H30.2511V174.016H30.3789C30.6204 173.381 31.0252 172.879 31.5934 172.51C32.1616 172.136 32.8505 171.949 33.6602 171.949C34.4177 171.949 35.0782 172.115 35.6417 172.446C36.2051 172.777 36.6431 173.251 36.9556 173.866C37.2681 174.477 37.4244 175.206 37.4244 176.054V183H34.3988V176.594C34.4035 175.926 34.2331 175.405 33.8874 175.031C33.5418 174.652 33.0659 174.463 32.4599 174.463C32.0527 174.463 31.6928 174.551 31.3803 174.726C31.0726 174.901 30.8311 175.157 30.6559 175.493C30.4854 175.824 30.3978 176.224 30.3931 176.693ZM42.8345 176.693V183H39.8089V168.455H42.7493V174.016H42.8771C43.1233 173.372 43.5211 172.867 44.0703 172.503C44.6196 172.134 45.3085 171.949 46.1371 171.949C46.8946 171.949 47.5552 172.115 48.1186 172.446C48.6868 172.773 49.1271 173.244 49.4396 173.859C49.7569 174.47 49.9131 175.202 49.9084 176.054V183H46.8828V176.594C46.8875 175.921 46.7171 175.398 46.3714 175.024C46.0305 174.65 45.5523 174.463 44.9368 174.463C44.5249 174.463 44.1603 174.551 43.843 174.726C43.5305 174.901 43.2843 175.157 43.1044 175.493C42.9292 175.824 42.8393 176.224 42.8345 176.693ZM59.2852 178.355V172.091H62.3107V183H59.4059V181.018H59.2923C59.046 181.658 58.6365 182.171 58.0636 182.56C57.4954 182.948 56.8017 183.142 55.9826 183.142C55.2534 183.142 54.6119 182.976 54.0579 182.645C53.5039 182.313 53.0707 181.842 52.7582 181.232C52.4504 180.621 52.2942 179.889 52.2894 179.037V172.091H55.315V178.497C55.3197 179.141 55.4925 179.65 55.8335 180.024C56.1744 180.398 56.6313 180.585 57.2042 180.585C57.5688 180.585 57.9097 180.502 58.2269 180.337C58.5442 180.166 58.7998 179.915 58.994 179.584C59.1928 179.252 59.2899 178.843 59.2852 178.355ZM64.7308 183V172.091H67.6143V174.016H67.7422C67.9695 173.376 68.3482 172.872 68.8786 172.503C69.4089 172.134 70.0433 171.949 70.782 171.949C71.5301 171.949 72.1669 172.136 72.6925 172.51C73.218 172.879 73.5684 173.381 73.7436 174.016H73.8572C74.0798 173.391 74.4822 172.891 75.0646 172.517C75.6518 172.138 76.3454 171.949 77.1456 171.949C78.1636 171.949 78.9898 172.273 79.6243 172.922C80.2635 173.566 80.5831 174.48 80.5831 175.663V183H77.5646V176.26C77.5646 175.654 77.4036 175.199 77.0817 174.896C76.7597 174.593 76.3572 174.442 75.8743 174.442C75.325 174.442 74.8965 174.617 74.5888 174.967C74.281 175.313 74.1271 175.77 74.1271 176.338V183H71.1939V176.196C71.1939 175.661 71.04 175.235 70.7322 174.918C70.4292 174.6 70.0291 174.442 69.532 174.442C69.1958 174.442 68.8928 174.527 68.6229 174.697C68.3577 174.863 68.147 175.098 67.9908 175.401C67.8345 175.699 67.7564 176.049 67.7564 176.452V183H64.7308ZM87.6019 183V172.091H90.5352V173.994H90.6488C90.8477 173.317 91.1815 172.806 91.6502 172.46C92.119 172.11 92.6587 171.935 93.2695 171.935C93.421 171.935 93.5844 171.944 93.7596 171.963C93.9348 171.982 94.0887 172.008 94.2212 172.041V174.726C94.0792 174.683 93.8827 174.645 93.6317 174.612C93.3808 174.579 93.1512 174.562 92.9428 174.562C92.4978 174.562 92.1 174.66 91.7496 174.854C91.404 175.043 91.1294 175.308 90.9258 175.649C90.7269 175.99 90.6275 176.383 90.6275 176.828V183H87.6019ZM100.249 183.213C99.1271 183.213 98.1612 182.986 97.3516 182.531C96.5466 182.072 95.9264 181.423 95.4908 180.585C95.0552 179.742 94.8374 178.746 94.8374 177.595C94.8374 176.473 95.0552 175.488 95.4908 174.641C95.9264 173.793 96.5395 173.133 97.3303 172.659C98.1257 172.186 99.0585 171.949 100.129 171.949C100.848 171.949 101.518 172.065 102.138 172.297C102.763 172.524 103.308 172.867 103.772 173.327C104.241 173.786 104.605 174.364 104.866 175.06C105.126 175.751 105.256 176.561 105.256 177.489V178.32H96.0447V176.445H102.408C102.408 176.009 102.314 175.623 102.124 175.287C101.935 174.951 101.672 174.688 101.336 174.499C101.004 174.304 100.619 174.207 100.178 174.207C99.719 174.207 99.3118 174.314 98.9567 174.527C98.6063 174.735 98.3317 175.017 98.1328 175.372C97.9339 175.723 97.8321 176.113 97.8274 176.544V178.327C97.8274 178.866 97.9268 179.333 98.1257 179.726C98.3293 180.119 98.6158 180.422 98.9851 180.635C99.3544 180.848 99.7924 180.955 100.299 180.955C100.635 180.955 100.943 180.907 101.222 180.812C101.502 180.718 101.741 180.576 101.94 180.386C102.138 180.197 102.29 179.965 102.394 179.69L105.192 179.875C105.05 180.547 104.759 181.134 104.319 181.636C103.883 182.134 103.32 182.522 102.629 182.801C101.942 183.076 101.149 183.213 100.249 183.213ZM107.231 187.091V172.091H110.214V173.923H110.349C110.481 173.63 110.673 173.331 110.924 173.028C111.18 172.721 111.511 172.465 111.918 172.261C112.33 172.053 112.842 171.949 113.452 171.949C114.248 171.949 114.982 172.157 115.654 172.574C116.326 172.986 116.864 173.608 117.266 174.442C117.669 175.27 117.87 176.31 117.87 177.56C117.87 178.777 117.674 179.804 117.281 180.642C116.892 181.475 116.362 182.107 115.69 182.538C115.022 182.964 114.274 183.178 113.445 183.178C112.858 183.178 112.359 183.08 111.947 182.886C111.54 182.692 111.206 182.448 110.945 182.155C110.685 181.857 110.486 181.556 110.349 181.253H110.256V187.091H107.231ZM110.192 177.545C110.192 178.194 110.282 178.76 110.462 179.243C110.642 179.726 110.903 180.102 111.244 180.372C111.585 180.637 111.999 180.77 112.487 180.77C112.979 180.77 113.396 180.635 113.737 180.365C114.077 180.09 114.335 179.712 114.511 179.229C114.691 178.741 114.781 178.18 114.781 177.545C114.781 176.916 114.693 176.362 114.518 175.884C114.343 175.405 114.085 175.031 113.744 174.761C113.403 174.491 112.984 174.357 112.487 174.357C111.994 174.357 111.577 174.487 111.237 174.747C110.9 175.008 110.642 175.377 110.462 175.855C110.282 176.333 110.192 176.897 110.192 177.545ZM119.887 183V172.091H122.82V173.994H122.934C123.133 173.317 123.467 172.806 123.935 172.46C124.404 172.11 124.944 171.935 125.555 171.935C125.706 171.935 125.87 171.944 126.045 171.963C126.22 171.982 126.374 172.008 126.506 172.041V174.726C126.364 174.683 126.168 174.645 125.917 174.612C125.666 174.579 125.436 174.562 125.228 174.562C124.783 174.562 124.385 174.66 124.035 174.854C123.689 175.043 123.415 175.308 123.211 175.649C123.012 175.99 122.913 176.383 122.913 176.828V183H119.887ZM132.534 183.213C131.412 183.213 130.446 182.986 129.637 182.531C128.832 182.072 128.212 181.423 127.776 180.585C127.34 179.742 127.123 178.746 127.123 177.595C127.123 176.473 127.34 175.488 127.776 174.641C128.212 173.793 128.825 173.133 129.615 172.659C130.411 172.186 131.344 171.949 132.414 171.949C133.133 171.949 133.803 172.065 134.424 172.297C135.049 172.524 135.593 172.867 136.057 173.327C136.526 173.786 136.891 174.364 137.151 175.06C137.411 175.751 137.542 176.561 137.542 177.489V178.32H128.33V176.445H134.694C134.694 176.009 134.599 175.623 134.409 175.287C134.22 174.951 133.957 174.688 133.621 174.499C133.29 174.304 132.904 174.207 132.463 174.207C132.004 174.207 131.597 174.314 131.242 174.527C130.891 174.735 130.617 175.017 130.418 175.372C130.219 175.723 130.117 176.113 130.113 176.544V178.327C130.113 178.866 130.212 179.333 130.411 179.726C130.614 180.119 130.901 180.422 131.27 180.635C131.64 180.848 132.078 180.955 132.584 180.955C132.92 180.955 133.228 180.907 133.507 180.812C133.787 180.718 134.026 180.576 134.225 180.386C134.424 180.197 134.575 179.965 134.679 179.69L137.478 179.875C137.336 180.547 137.044 181.134 136.604 181.636C136.168 182.134 135.605 182.522 134.914 182.801C134.227 183.076 133.434 183.213 132.534 183.213ZM148.593 175.202L145.823 175.372C145.775 175.135 145.674 174.922 145.517 174.733C145.361 174.539 145.155 174.385 144.9 174.271C144.649 174.153 144.348 174.094 143.998 174.094C143.529 174.094 143.133 174.193 142.811 174.392C142.489 174.586 142.328 174.847 142.328 175.173C142.328 175.434 142.433 175.654 142.641 175.834C142.849 176.014 143.207 176.158 143.713 176.267L145.688 176.665C146.748 176.883 147.539 177.233 148.06 177.716C148.581 178.199 148.841 178.833 148.841 179.619C148.841 180.334 148.631 180.962 148.209 181.501C147.792 182.041 147.22 182.463 146.49 182.766C145.766 183.064 144.93 183.213 143.983 183.213C142.539 183.213 141.389 182.912 140.532 182.311C139.679 181.705 139.18 180.881 139.033 179.839L142.009 179.683C142.099 180.124 142.317 180.46 142.662 180.692C143.008 180.919 143.451 181.033 143.99 181.033C144.521 181.033 144.947 180.931 145.269 180.727C145.596 180.519 145.761 180.251 145.766 179.925C145.761 179.65 145.645 179.425 145.418 179.25C145.191 179.07 144.84 178.933 144.367 178.838L142.478 178.462C141.412 178.249 140.619 177.879 140.098 177.354C139.582 176.828 139.324 176.158 139.324 175.344C139.324 174.643 139.514 174.039 139.892 173.533C140.276 173.026 140.813 172.635 141.505 172.361C142.201 172.086 143.015 171.949 143.948 171.949C145.326 171.949 146.41 172.24 147.201 172.822C147.996 173.405 148.46 174.198 148.593 175.202ZM155.718 183.213C154.596 183.213 153.63 182.986 152.82 182.531C152.015 182.072 151.395 181.423 150.96 180.585C150.524 179.742 150.306 178.746 150.306 177.595C150.306 176.473 150.524 175.488 150.96 174.641C151.395 173.793 152.008 173.133 152.799 172.659C153.594 172.186 154.527 171.949 155.597 171.949C156.317 171.949 156.987 172.065 157.607 172.297C158.232 172.524 158.777 172.867 159.241 173.327C159.71 173.786 160.074 174.364 160.335 175.06C160.595 175.751 160.725 176.561 160.725 177.489V178.32H151.513V176.445H157.877C157.877 176.009 157.782 175.623 157.593 175.287C157.404 174.951 157.141 174.688 156.805 174.499C156.473 174.304 156.087 174.207 155.647 174.207C155.188 174.207 154.781 174.314 154.425 174.527C154.075 174.735 153.8 175.017 153.602 175.372C153.403 175.723 153.301 176.113 153.296 176.544V178.327C153.296 178.866 153.396 179.333 153.594 179.726C153.798 180.119 154.085 180.422 154.454 180.635C154.823 180.848 155.261 180.955 155.768 180.955C156.104 180.955 156.412 180.907 156.691 180.812C156.97 180.718 157.21 180.576 157.408 180.386C157.607 180.197 157.759 179.965 157.863 179.69L160.661 179.875C160.519 180.547 160.228 181.134 159.788 181.636C159.352 182.134 158.789 182.522 158.097 182.801C157.411 183.076 156.618 183.213 155.718 183.213ZM165.725 176.693V183H162.7V172.091H165.583V174.016H165.711C165.952 173.381 166.357 172.879 166.925 172.51C167.494 172.136 168.183 171.949 168.992 171.949C169.75 171.949 170.41 172.115 170.974 172.446C171.537 172.777 171.975 173.251 172.288 173.866C172.6 174.477 172.756 175.206 172.756 176.054V183H169.731V176.594C169.736 175.926 169.565 175.405 169.219 175.031C168.874 174.652 168.398 174.463 167.792 174.463C167.385 174.463 167.025 174.551 166.712 174.726C166.405 174.901 166.163 175.157 165.988 175.493C165.817 175.824 165.73 176.224 165.725 176.693ZM180.944 172.091V174.364H174.374V172.091H180.944ZM175.865 169.477H178.891V179.648C178.891 179.927 178.934 180.145 179.019 180.301C179.104 180.453 179.222 180.559 179.374 180.621C179.53 180.682 179.71 180.713 179.914 180.713C180.056 180.713 180.198 180.701 180.34 180.678C180.482 180.649 180.591 180.628 180.667 180.614L181.142 182.865C180.991 182.912 180.778 182.967 180.503 183.028C180.229 183.095 179.895 183.135 179.502 183.149C178.773 183.178 178.133 183.08 177.584 182.858C177.04 182.635 176.616 182.29 176.313 181.821C176.01 181.352 175.861 180.76 175.865 180.045V169.477ZM186.025 183.206C185.329 183.206 184.709 183.085 184.164 182.844C183.62 182.598 183.189 182.235 182.872 181.757C182.559 181.274 182.403 180.673 182.403 179.953C182.403 179.347 182.514 178.838 182.737 178.426C182.959 178.014 183.262 177.683 183.646 177.432C184.029 177.181 184.465 176.991 184.953 176.864C185.445 176.736 185.961 176.646 186.501 176.594C187.136 176.527 187.647 176.466 188.035 176.409C188.423 176.348 188.705 176.258 188.88 176.139C189.056 176.021 189.143 175.846 189.143 175.614V175.571C189.143 175.121 189.001 174.773 188.717 174.527C188.438 174.281 188.04 174.158 187.524 174.158C186.979 174.158 186.546 174.278 186.224 174.52C185.902 174.757 185.689 175.055 185.585 175.415L182.787 175.188C182.929 174.525 183.208 173.952 183.625 173.469C184.041 172.981 184.579 172.607 185.237 172.347C185.9 172.081 186.667 171.949 187.538 171.949C188.144 171.949 188.724 172.02 189.278 172.162C189.837 172.304 190.332 172.524 190.762 172.822C191.198 173.121 191.541 173.504 191.792 173.973C192.043 174.437 192.169 174.993 192.169 175.642V183H189.299V181.487H189.214C189.039 181.828 188.805 182.129 188.511 182.389C188.217 182.645 187.865 182.846 187.453 182.993C187.041 183.135 186.565 183.206 186.025 183.206ZM186.892 181.118C187.337 181.118 187.73 181.03 188.071 180.855C188.412 180.675 188.679 180.434 188.873 180.131C189.067 179.828 189.164 179.484 189.164 179.101V177.943C189.07 178.005 188.94 178.062 188.774 178.114C188.613 178.161 188.431 178.206 188.227 178.249C188.023 178.286 187.82 178.322 187.616 178.355C187.413 178.384 187.228 178.41 187.062 178.433C186.707 178.485 186.397 178.568 186.132 178.682C185.867 178.795 185.661 178.949 185.514 179.143C185.367 179.333 185.294 179.57 185.294 179.854C185.294 180.266 185.443 180.58 185.741 180.798C186.044 181.011 186.428 181.118 186.892 181.118ZM197.542 176.693V183H194.516V172.091H197.4V174.016H197.527C197.769 173.381 198.174 172.879 198.742 172.51C199.31 172.136 199.999 171.949 200.809 171.949C201.566 171.949 202.227 172.115 202.79 172.446C203.354 172.777 203.792 173.251 204.104 173.866C204.417 174.477 204.573 175.206 204.573 176.054V183H201.547V176.594C201.552 175.926 201.382 175.405 201.036 175.031C200.69 174.652 200.214 174.463 199.608 174.463C199.201 174.463 198.841 174.551 198.529 174.726C198.221 174.901 197.98 175.157 197.804 175.493C197.634 175.824 197.546 176.224 197.542 176.693ZM212.76 172.091V174.364H206.19V172.091H212.76ZM207.682 169.477H210.707V179.648C210.707 179.927 210.75 180.145 210.835 180.301C210.92 180.453 211.039 180.559 211.19 180.621C211.347 180.682 211.527 180.713 211.73 180.713C211.872 180.713 212.014 180.701 212.156 180.678C212.298 180.649 212.407 180.628 212.483 180.614L212.959 182.865C212.807 182.912 212.594 182.967 212.32 183.028C212.045 183.095 211.711 183.135 211.318 183.149C210.589 183.178 209.95 183.08 209.401 182.858C208.856 182.635 208.432 182.29 208.129 181.821C207.826 181.352 207.677 180.76 207.682 180.045V169.477ZM219.585 183.213C218.463 183.213 217.497 182.986 216.688 182.531C215.883 182.072 215.262 181.423 214.827 180.585C214.391 179.742 214.173 178.746 214.173 177.595C214.173 176.473 214.391 175.488 214.827 174.641C215.262 173.793 215.875 173.133 216.666 172.659C217.462 172.186 218.394 171.949 219.464 171.949C220.184 171.949 220.854 172.065 221.474 172.297C222.099 172.524 222.644 172.867 223.108 173.327C223.577 173.786 223.941 174.364 224.202 175.06C224.462 175.751 224.592 176.561 224.592 177.489V178.32H215.381V176.445H221.744C221.744 176.009 221.65 175.623 221.46 175.287C221.271 174.951 221.008 174.688 220.672 174.499C220.34 174.304 219.955 174.207 219.514 174.207C219.055 174.207 218.648 174.314 218.293 174.527C217.942 174.735 217.668 175.017 217.469 175.372C217.27 175.723 217.168 176.113 217.163 176.544V178.327C217.163 178.866 217.263 179.333 217.462 179.726C217.665 180.119 217.952 180.422 218.321 180.635C218.69 180.848 219.128 180.955 219.635 180.955C219.971 180.955 220.279 180.907 220.558 180.812C220.838 180.718 221.077 180.576 221.276 180.386C221.474 180.197 221.626 179.965 221.73 179.69L224.528 179.875C224.386 180.547 224.095 181.134 223.655 181.636C223.219 182.134 222.656 182.522 221.964 182.801C221.278 183.076 220.485 183.213 219.585 183.213ZM236.125 183.213C235.007 183.213 234.046 182.976 233.241 182.503C232.441 182.025 231.825 181.362 231.395 180.514C230.968 179.667 230.755 178.691 230.755 177.588C230.755 176.471 230.971 175.491 231.402 174.648C231.837 173.8 232.455 173.14 233.255 172.666C234.056 172.188 235.007 171.949 236.11 171.949C237.062 171.949 237.895 172.122 238.61 172.467C239.325 172.813 239.891 173.298 240.308 173.923C240.725 174.548 240.954 175.282 240.997 176.125H238.142C238.061 175.58 237.848 175.143 237.502 174.811C237.162 174.475 236.714 174.307 236.16 174.307C235.691 174.307 235.282 174.435 234.931 174.69C234.586 174.941 234.316 175.308 234.122 175.791C233.928 176.274 233.831 176.859 233.831 177.545C233.831 178.241 233.925 178.833 234.115 179.321C234.309 179.809 234.581 180.18 234.931 180.436C235.282 180.692 235.691 180.82 236.16 180.82C236.506 180.82 236.816 180.749 237.091 180.607C237.37 180.464 237.6 180.259 237.779 179.989C237.964 179.714 238.085 179.385 238.142 179.001H240.997C240.949 179.835 240.722 180.569 240.315 181.203C239.913 181.833 239.356 182.325 238.646 182.68C237.936 183.036 237.095 183.213 236.125 183.213ZM246.045 183.206C245.349 183.206 244.728 183.085 244.184 182.844C243.639 182.598 243.209 182.235 242.891 181.757C242.579 181.274 242.423 180.673 242.423 179.953C242.423 179.347 242.534 178.838 242.756 178.426C242.979 178.014 243.282 177.683 243.665 177.432C244.049 177.181 244.485 176.991 244.972 176.864C245.465 176.736 245.981 176.646 246.521 176.594C247.155 176.527 247.666 176.466 248.055 176.409C248.443 176.348 248.725 176.258 248.9 176.139C249.075 176.021 249.163 175.846 249.163 175.614V175.571C249.163 175.121 249.021 174.773 248.737 174.527C248.457 174.281 248.059 174.158 247.543 174.158C246.999 174.158 246.566 174.278 246.244 174.52C245.922 174.757 245.709 175.055 245.604 175.415L242.806 175.188C242.948 174.525 243.228 173.952 243.644 173.469C244.061 172.981 244.598 172.607 245.256 172.347C245.919 172.081 246.686 171.949 247.558 171.949C248.164 171.949 248.744 172.02 249.298 172.162C249.856 172.304 250.351 172.524 250.782 172.822C251.218 173.121 251.561 173.504 251.812 173.973C252.063 174.437 252.188 174.993 252.188 175.642V183H249.319V181.487H249.234C249.058 181.828 248.824 182.129 248.531 182.389C248.237 182.645 247.884 182.846 247.472 182.993C247.06 183.135 246.585 183.206 246.045 183.206ZM246.911 181.118C247.356 181.118 247.749 181.03 248.09 180.855C248.431 180.675 248.699 180.434 248.893 180.131C249.087 179.828 249.184 179.484 249.184 179.101V177.943C249.089 178.005 248.959 178.062 248.793 178.114C248.632 178.161 248.45 178.206 248.246 178.249C248.043 178.286 247.839 178.322 247.636 178.355C247.432 178.384 247.247 178.41 247.082 178.433C246.727 178.485 246.416 178.568 246.151 178.682C245.886 178.795 245.68 178.949 245.533 179.143C245.387 179.333 245.313 179.57 245.313 179.854C245.313 180.266 245.462 180.58 245.761 180.798C246.064 181.011 246.447 181.118 246.911 181.118ZM258.555 183.178C257.727 183.178 256.976 182.964 256.304 182.538C255.636 182.107 255.106 181.475 254.713 180.642C254.325 179.804 254.131 178.777 254.131 177.56C254.131 176.31 254.332 175.27 254.734 174.442C255.137 173.608 255.672 172.986 256.339 172.574C257.012 172.157 257.748 171.949 258.548 171.949C259.159 171.949 259.668 172.053 260.075 172.261C260.487 172.465 260.819 172.721 261.07 173.028C261.325 173.331 261.519 173.63 261.652 173.923H261.744V168.455H264.763V183H261.78V181.253H261.652C261.51 181.556 261.309 181.857 261.048 182.155C260.793 182.448 260.459 182.692 260.047 182.886C259.64 183.08 259.143 183.178 258.555 183.178ZM259.514 180.77C260.002 180.77 260.414 180.637 260.75 180.372C261.091 180.102 261.351 179.726 261.531 179.243C261.716 178.76 261.808 178.194 261.808 177.545C261.808 176.897 261.718 176.333 261.538 175.855C261.358 175.377 261.098 175.008 260.757 174.747C260.416 174.487 260.002 174.357 259.514 174.357C259.017 174.357 258.598 174.491 258.257 174.761C257.916 175.031 257.658 175.405 257.483 175.884C257.308 176.362 257.22 176.916 257.22 177.545C257.22 178.18 257.308 178.741 257.483 179.229C257.663 179.712 257.921 180.09 258.257 180.365C258.598 180.635 259.017 180.77 259.514 180.77ZM270.361 183.206C269.665 183.206 269.045 183.085 268.5 182.844C267.956 182.598 267.525 182.235 267.208 181.757C266.895 181.274 266.739 180.673 266.739 179.953C266.739 179.347 266.85 178.838 267.073 178.426C267.295 178.014 267.598 177.683 267.982 177.432C268.365 177.181 268.801 176.991 269.289 176.864C269.781 176.736 270.297 176.646 270.837 176.594C271.471 176.527 271.983 176.466 272.371 176.409C272.759 176.348 273.041 176.258 273.216 176.139C273.391 176.021 273.479 175.846 273.479 175.614V175.571C273.479 175.121 273.337 174.773 273.053 174.527C272.774 174.281 272.376 174.158 271.86 174.158C271.315 174.158 270.882 174.278 270.56 174.52C270.238 174.757 270.025 175.055 269.921 175.415L267.123 175.188C267.265 174.525 267.544 173.952 267.961 173.469C268.377 172.981 268.915 172.607 269.573 172.347C270.236 172.081 271.003 171.949 271.874 171.949C272.48 171.949 273.06 172.02 273.614 172.162C274.173 172.304 274.667 172.524 275.098 172.822C275.534 173.121 275.877 173.504 276.128 173.973C276.379 174.437 276.505 174.993 276.505 175.642V183H273.635V181.487H273.55C273.375 181.828 273.141 182.129 272.847 182.389C272.553 182.645 272.201 182.846 271.789 182.993C271.377 183.135 270.901 183.206 270.361 183.206ZM271.228 181.118C271.673 181.118 272.066 181.03 272.407 180.855C272.748 180.675 273.015 180.434 273.209 180.131C273.403 179.828 273.5 179.484 273.5 179.101V177.943C273.406 178.005 273.275 178.062 273.11 178.114C272.949 178.161 272.766 178.206 272.563 178.249C272.359 178.286 272.156 178.322 271.952 178.355C271.748 178.384 271.564 178.41 271.398 178.433C271.043 178.485 270.733 178.568 270.468 178.682C270.203 178.795 269.997 178.949 269.85 179.143C269.703 179.333 269.63 179.57 269.63 179.854C269.63 180.266 269.779 180.58 270.077 180.798C270.38 181.011 270.764 181.118 271.228 181.118ZM287.929 175.202L285.159 175.372C285.111 175.135 285.01 174.922 284.853 174.733C284.697 174.539 284.491 174.385 284.235 174.271C283.984 174.153 283.684 174.094 283.333 174.094C282.865 174.094 282.469 174.193 282.147 174.392C281.825 174.586 281.664 174.847 281.664 175.173C281.664 175.434 281.769 175.654 281.977 175.834C282.185 176.014 282.543 176.158 283.049 176.267L285.024 176.665C286.084 176.883 286.875 177.233 287.396 177.716C287.917 178.199 288.177 178.833 288.177 179.619C288.177 180.334 287.967 180.962 287.545 181.501C287.128 182.041 286.556 182.463 285.826 182.766C285.102 183.064 284.266 183.213 283.319 183.213C281.875 183.213 280.725 182.912 279.868 182.311C279.015 181.705 278.516 180.881 278.369 179.839L281.345 179.683C281.435 180.124 281.653 180.46 281.998 180.692C282.344 180.919 282.787 181.033 283.326 181.033C283.857 181.033 284.283 180.931 284.605 180.727C284.931 180.519 285.097 180.251 285.102 179.925C285.097 179.65 284.981 179.425 284.754 179.25C284.527 179.07 284.176 178.933 283.703 178.838L281.814 178.462C280.748 178.249 279.955 177.879 279.434 177.354C278.918 176.828 278.66 176.158 278.66 175.344C278.66 174.643 278.85 174.039 279.228 173.533C279.612 173.026 280.149 172.635 280.841 172.361C281.537 172.086 282.351 171.949 283.284 171.949C284.662 171.949 285.746 172.24 286.537 172.822C287.332 173.405 287.796 174.198 287.929 175.202ZM295.885 172.091V174.364H289.315V172.091H295.885ZM290.807 169.477H293.832V179.648C293.832 179.927 293.875 180.145 293.96 180.301C294.045 180.453 294.164 180.559 294.315 180.621C294.472 180.682 294.652 180.713 294.855 180.713C294.997 180.713 295.139 180.701 295.281 180.678C295.423 180.649 295.532 180.628 295.608 180.614L296.084 182.865C295.932 182.912 295.719 182.967 295.445 183.028C295.17 183.095 294.836 183.135 294.443 183.149C293.714 183.178 293.075 183.08 292.526 182.858C291.981 182.635 291.557 182.29 291.254 181.821C290.951 181.352 290.802 180.76 290.807 180.045V169.477ZM297.856 183V172.091H300.789V173.994H300.903C301.102 173.317 301.435 172.806 301.904 172.46C302.373 172.11 302.913 171.935 303.523 171.935C303.675 171.935 303.838 171.944 304.013 171.963C304.189 171.982 304.343 172.008 304.475 172.041V174.726C304.333 174.683 304.137 174.645 303.886 174.612C303.635 174.579 303.405 174.562 303.197 174.562C302.752 174.562 302.354 174.66 302.004 174.854C301.658 175.043 301.383 175.308 301.18 175.649C300.981 175.99 300.881 176.383 300.881 176.828V183H297.856ZM308.838 183.206C308.142 183.206 307.521 183.085 306.977 182.844C306.432 182.598 306.002 182.235 305.684 181.757C305.372 181.274 305.216 180.673 305.216 179.953C305.216 179.347 305.327 178.838 305.549 178.426C305.772 178.014 306.075 177.683 306.458 177.432C306.842 177.181 307.278 176.991 307.765 176.864C308.258 176.736 308.774 176.646 309.314 176.594C309.948 176.527 310.459 176.466 310.848 176.409C311.236 176.348 311.518 176.258 311.693 176.139C311.868 176.021 311.956 175.846 311.956 175.614V175.571C311.956 175.121 311.814 174.773 311.529 174.527C311.25 174.281 310.852 174.158 310.336 174.158C309.792 174.158 309.359 174.278 309.037 174.52C308.715 174.757 308.502 175.055 308.397 175.415L305.599 175.188C305.741 174.525 306.02 173.952 306.437 173.469C306.854 172.981 307.391 172.607 308.049 172.347C308.712 172.081 309.479 171.949 310.35 171.949C310.957 171.949 311.537 172.02 312.091 172.162C312.649 172.304 313.144 172.524 313.575 172.822C314.011 173.121 314.354 173.504 314.605 173.973C314.856 174.437 314.981 174.993 314.981 175.642V183H312.112V181.487H312.027C311.851 181.828 311.617 182.129 311.324 182.389C311.03 182.645 310.677 182.846 310.265 182.993C309.853 183.135 309.377 183.206 308.838 183.206ZM309.704 181.118C310.149 181.118 310.542 181.03 310.883 180.855C311.224 180.675 311.492 180.434 311.686 180.131C311.88 179.828 311.977 179.484 311.977 179.101V177.943C311.882 178.005 311.752 178.062 311.586 178.114C311.425 178.161 311.243 178.206 311.039 178.249C310.836 178.286 310.632 178.322 310.429 178.355C310.225 178.384 310.04 178.41 309.875 178.433C309.52 178.485 309.209 178.568 308.944 178.682C308.679 178.795 308.473 178.949 308.326 179.143C308.18 179.333 308.106 179.57 308.106 179.854C308.106 180.266 308.255 180.58 308.554 180.798C308.857 181.011 309.24 181.118 309.704 181.118ZM321.348 183.178C320.52 183.178 319.769 182.964 319.097 182.538C318.429 182.107 317.899 181.475 317.506 180.642C317.118 179.804 316.924 178.777 316.924 177.56C316.924 176.31 317.125 175.27 317.527 174.442C317.93 173.608 318.465 172.986 319.132 172.574C319.805 172.157 320.541 171.949 321.341 171.949C321.952 171.949 322.461 172.053 322.868 172.261C323.28 172.465 323.612 172.721 323.863 173.028C324.118 173.331 324.312 173.63 324.445 173.923H324.537V168.455H327.556V183H324.573V181.253H324.445C324.303 181.556 324.102 181.857 323.841 182.155C323.586 182.448 323.252 182.692 322.84 182.886C322.433 183.08 321.935 183.178 321.348 183.178ZM322.307 180.77C322.795 180.77 323.207 180.637 323.543 180.372C323.884 180.102 324.144 179.726 324.324 179.243C324.509 178.76 324.601 178.194 324.601 177.545C324.601 176.897 324.511 176.333 324.331 175.855C324.151 175.377 323.891 175.008 323.55 174.747C323.209 174.487 322.795 174.357 322.307 174.357C321.81 174.357 321.391 174.491 321.05 174.761C320.709 175.031 320.451 175.405 320.276 175.884C320.101 176.362 320.013 176.916 320.013 177.545C320.013 178.18 320.101 178.741 320.276 179.229C320.456 179.712 320.714 180.09 321.05 180.365C321.391 180.635 321.81 180.77 322.307 180.77ZM334.972 183.213C333.869 183.213 332.915 182.979 332.11 182.51C331.31 182.036 330.692 181.378 330.256 180.536C329.821 179.688 329.603 178.705 329.603 177.588C329.603 176.461 329.821 175.476 330.256 174.634C330.692 173.786 331.31 173.128 332.11 172.659C332.915 172.186 333.869 171.949 334.972 171.949C336.076 171.949 337.027 172.186 337.827 172.659C338.632 173.128 339.253 173.786 339.688 174.634C340.124 175.476 340.342 176.461 340.342 177.588C340.342 178.705 340.124 179.688 339.688 180.536C339.253 181.378 338.632 182.036 337.827 182.51C337.027 182.979 336.076 183.213 334.972 183.213ZM334.987 180.869C335.488 180.869 335.907 180.727 336.244 180.443C336.58 180.154 336.833 179.761 337.004 179.264C337.179 178.767 337.266 178.201 337.266 177.567C337.266 176.932 337.179 176.366 337.004 175.869C336.833 175.372 336.58 174.979 336.244 174.69C335.907 174.402 335.488 174.257 334.987 174.257C334.48 174.257 334.054 174.402 333.708 174.69C333.367 174.979 333.109 175.372 332.934 175.869C332.763 176.366 332.678 176.932 332.678 177.567C332.678 178.201 332.763 178.767 332.934 179.264C333.109 179.761 333.367 180.154 333.708 180.443C334.054 180.727 334.48 180.869 334.987 180.869ZM345.924 168.455L345.647 178.639H343.048L342.763 168.455H345.924ZM344.347 183.185C343.879 183.185 343.476 183.019 343.14 182.688C342.804 182.351 342.638 181.949 342.643 181.48C342.638 181.016 342.804 180.618 343.14 180.287C343.476 179.955 343.879 179.79 344.347 179.79C344.797 179.79 345.192 179.955 345.533 180.287C345.874 180.618 346.047 181.016 346.052 181.48C346.047 181.793 345.964 182.079 345.803 182.339C345.647 182.595 345.441 182.801 345.185 182.957C344.93 183.109 344.65 183.185 344.347 183.185Z" fill="white"/>
                        <defs>
                        <linearGradient id="paint0_linear_0_1" x1="101.92" y1="35.6345" x2="80.484" y2="63.6615" gradientUnits="userSpaceOnUse">
                        <stop stop-color="#CFDDF3"/>
                        <stop offset="1" stop-color="#A1B8E3"/>
                        </linearGradient>
                        <linearGradient id="paint1_linear_0_1" x1="220.51" y1="66.6744" x2="212.044" y2="74.8842" gradientUnits="userSpaceOnUse">
                        <stop stop-color="#CFDDF3"/>
                        <stop offset="1" stop-color="#A1B8E3"/>
                        </linearGradient>
                        <linearGradient id="paint2_linear_0_1" x1="243.818" y1="94.4905" x2="240.53" y2="83.1502" gradientUnits="userSpaceOnUse">
                        <stop stop-color="#CFDDF3"/>
                        <stop offset="1" stop-color="#A1B8E3"/>
                        </linearGradient>
                        <linearGradient id="paint3_linear_0_1" x1="239.473" y1="105.256" x2="236.78" y2="93.759" gradientUnits="userSpaceOnUse">
                        <stop stop-color="#CFDDF3"/>
                        <stop offset="1" stop-color="#A1B8E3"/>
                        </linearGradient>
                        <linearGradient id="paint4_linear_0_1" x1="236.279" y1="115.108" x2="233.585" y2="103.611" gradientUnits="userSpaceOnUse">
                        <stop stop-color="#CFDDF3"/>
                        <stop offset="1" stop-color="#A1B8E3"/>
                        </linearGradient>
                        <linearGradient id="paint5_linear_0_1" x1="244.02" y1="69.9285" x2="232.857" y2="66.1101" gradientUnits="userSpaceOnUse">
                        <stop stop-color="#CFDDF3"/>
                        <stop offset="1" stop-color="#A1B8E3"/>
                        </linearGradient>
                        <linearGradient id="paint6_linear_0_1" x1="212.581" y1="77.5158" x2="205.838" y2="87.1929" gradientUnits="userSpaceOnUse">
                        <stop stop-color="#CFDDF3"/>
                        <stop offset="1" stop-color="#A1B8E3"/>
                        </linearGradient>
                        <linearGradient id="paint7_linear_0_1" x1="207.232" y1="88.5422" x2="201.537" y2="98.8736" gradientUnits="userSpaceOnUse">
                        <stop stop-color="#CFDDF3"/>
                        <stop offset="1" stop-color="#A1B8E3"/>
                        </linearGradient>
                        <radialGradient id="paint8_radial_0_1" cx="0" cy="0" r="1" gradientUnits="userSpaceOnUse" gradientTransform="translate(208.513 126.874) scale(12.4128 7.01803)">
                        <stop stop-color="#3864B1"/>
                        <stop offset="1" stop-color="#223762"/>
                        </radialGradient>
                        <linearGradient id="paint9_linear_0_1" x1="198.469" y1="131.334" x2="196.853" y2="126.108" gradientUnits="userSpaceOnUse">
                        <stop stop-color="#223762" stop-opacity="0"/>
                        <stop offset="1" stop-opacity="0.502"/>
                        </linearGradient>
                        <linearGradient id="paint10_linear_0_1" x1="185.636" y1="131.137" x2="190.217" y2="127.95" gradientUnits="userSpaceOnUse">
                        <stop stop-color="#E38DEB"/>
                        <stop offset="1" stop-color="#F6A1FE"/>
                        </linearGradient>
                        <linearGradient id="paint11_linear_0_1" x1="184.548" y1="134.498" x2="184.548" y2="124.828" gradientUnits="userSpaceOnUse">
                        <stop stop-color="#70B8F9" stop-opacity="0"/>
                        <stop offset="1" stop-color="#3D82F0"/>
                        </linearGradient>
                        <radialGradient id="paint12_radial_0_1" cx="0" cy="0" r="1" gradientUnits="userSpaceOnUse" gradientTransform="translate(135.53 125.086) scale(12.4854 6.75343)">
                        <stop stop-color="#351C56"/>
                        <stop offset="1" stop-color="#223762"/>
                        </radialGradient>
                        <radialGradient id="paint13_radial_0_1" cx="0" cy="0" r="1" gradientUnits="userSpaceOnUse" gradientTransform="translate(135.53 125.086) scale(12.4854 6.75343)">
                        <stop stop-color="#351C56"/>
                        <stop offset="1" stop-color="#223762"/>
                        </radialGradient>
                        <radialGradient id="paint14_radial_0_1" cx="0" cy="0" r="1" gradientUnits="userSpaceOnUse" gradientTransform="translate(135.53 125.086) scale(12.4854 6.75343)">
                        <stop stop-color="#351C56"/>
                        <stop offset="1" stop-color="#223762"/>
                        </radialGradient>
                        <linearGradient id="paint15_linear_0_1" x1="157.296" y1="131.362" x2="154.129" y2="126.324" gradientUnits="userSpaceOnUse">
                        <stop stop-color="#F158FF"/>
                        <stop offset="1" stop-color="#F6A1FE"/>
                        </linearGradient>
                        <linearGradient id="paint16_linear_0_1" x1="158.138" y1="134.076" x2="158.138" y2="126.055" gradientUnits="userSpaceOnUse">
                        <stop stop-color="#F6A1FE" stop-opacity="0.082"/>
                        <stop offset="1" stop-color="#E38DEB"/>
                        </linearGradient>
                        <linearGradient id="paint17_linear_0_1" x1="170.778" y1="132.001" x2="170.778" y2="101.301" gradientUnits="userSpaceOnUse">
                        <stop stop-color="#41679C"/>
                        <stop offset="1" stop-color="#89A3D0"/>
                        </linearGradient>
                        <linearGradient id="paint18_linear_0_1" x1="169.139" y1="96.4941" x2="169.297" y2="104.351" gradientUnits="userSpaceOnUse">
                        <stop stop-color="#5E7FB1"/>
                        <stop offset="1" stop-color="#A1B8E3" stop-opacity="0.188"/>
                        </linearGradient>
                        <linearGradient id="paint19_linear_0_1" x1="177.805" y1="99.7529" x2="178.651" y2="113.854" gradientUnits="userSpaceOnUse">
                        <stop stop-color="#5E7FB1"/>
                        <stop offset="1" stop-color="#A1B8E3" stop-opacity="0.188"/>
                        </linearGradient>
                        <linearGradient id="paint20_linear_0_1" x1="166.474" y1="109.044" x2="162.989" y2="102.268" gradientUnits="userSpaceOnUse">
                        <stop stop-color="#5E7FB1"/>
                        <stop offset="1" stop-color="#A1B8E3" stop-opacity="0.188"/>
                        </linearGradient>
                        <linearGradient id="paint21_linear_0_1" x1="167.258" y1="34.5762" x2="167.258" y2="47.1707" gradientUnits="userSpaceOnUse">
                        <stop stop-color="#E38DEB"/>
                        <stop offset="1" stop-color="#F590FF"/>
                        </linearGradient>
                        <linearGradient id="paint22_linear_0_1" x1="175.34" y1="56.5235" x2="168.604" y2="57.5609" gradientUnits="userSpaceOnUse">
                        <stop stop-color="#E38DEB"/>
                        <stop offset="1" stop-color="#E38DEB" stop-opacity="0.102"/>
                        </linearGradient>
                        <linearGradient id="paint23_linear_0_1" x1="168.957" y1="47.5918" x2="168.957" y2="35.6328" gradientUnits="userSpaceOnUse">
                        <stop stop-color="#E38DEB" stop-opacity="0.161"/>
                        <stop offset="1" stop-color="#E38DEB"/>
                        </linearGradient>
                        <linearGradient id="paint24_linear_0_1" x1="181.563" y1="32.4321" x2="168.172" y2="32.4321" gradientUnits="userSpaceOnUse">
                        <stop stop-color="#E38DEB"/>
                        <stop offset="1" stop-color="#F6A1FE"/>
                        </linearGradient>
                        <linearGradient id="paint25_linear_0_1" x1="158.29" y1="82.5827" x2="179.092" y2="88.8534" gradientUnits="userSpaceOnUse">
                        <stop stop-color="#E9F2FE"/>
                        <stop offset="1" stop-color="#BCD3F8"/>
                        </linearGradient>
                        <linearGradient id="paint26_linear_0_1" x1="170.43" y1="86.4284" x2="180.069" y2="92.5429" gradientUnits="userSpaceOnUse">
                        <stop stop-color="white" stop-opacity="0"/>
                        <stop offset="1" stop-color="#003BA0"/>
                        </linearGradient>
                        <linearGradient id="paint27_linear_0_1" x1="128.405" y1="93.5668" x2="123.534" y2="92.755" gradientUnits="userSpaceOnUse">
                        <stop stop-color="#E38DEB"/>
                        <stop offset="1" stop-color="#F6A1FE"/>
                        </linearGradient>
                        <linearGradient id="paint28_linear_0_1" x1="213.413" y1="92.7349" x2="216.352" y2="91.9656" gradientUnits="userSpaceOnUse">
                        <stop stop-color="#E38DEB"/>
                        <stop offset="1" stop-color="#F6A1FE"/>
                        </linearGradient>
                        <linearGradient id="paint29_linear_0_1" x1="145.69" y1="97.6567" x2="156.098" y2="95.6788" gradientUnits="userSpaceOnUse">
                        <stop stop-color="#D99F2B"/>
                        <stop offset="1" stop-color="#A9C1E8" stop-opacity="0.094"/>
                        </linearGradient>
                        <linearGradient id="paint30_linear_0_1" x1="148.852" y1="77.5615" x2="132.51" y2="88.3082" gradientUnits="userSpaceOnUse">
                        <stop stop-color="#A9BFE4"/>
                        <stop offset="1" stop-color="#A9C1E8" stop-opacity="0.094"/>
                        </linearGradient>
                        <linearGradient id="paint31_linear_0_1" x1="174.961" y1="114.972" x2="177.686" y2="127.65" gradientUnits="userSpaceOnUse">
                        <stop stop-color="#B2C7EE" stop-opacity="0"/>
                        <stop offset="1" stop-color="#1F54A6"/>
                        </linearGradient>
                        <linearGradient id="paint32_linear_0_1" x1="213.874" y1="102.48" x2="195.002" y2="105.37" gradientUnits="userSpaceOnUse">
                        <stop stop-color="white" stop-opacity="0.502"/>
                        <stop offset="1" stop-color="#B2C7EE" stop-opacity="0"/>
                        </linearGradient>
                        <linearGradient id="paint33_linear_0_1" x1="156.786" y1="124.548" x2="163.141" y2="118.615" gradientUnits="userSpaceOnUse">
                        <stop stop-color="#A1B8E3" stop-opacity="0.235"/>
                        <stop offset="1" stop-color="#002B6F"/>
                        </linearGradient>
                        <linearGradient id="paint34_linear_0_1" x1="150.044" y1="108.222" x2="142.948" y2="122.585" gradientUnits="userSpaceOnUse">
                        <stop stop-color="#B2C7EE" stop-opacity="0"/>
                        <stop offset="1" stop-color="#1F54A6"/>
                        </linearGradient>
                        <linearGradient id="paint35_linear_0_1" x1="151.245" y1="90.8261" x2="151.245" y2="107.468" gradientUnits="userSpaceOnUse">
                        <stop stop-color="white" stop-opacity="0.502"/>
                        <stop offset="1" stop-color="#B2C7EE" stop-opacity="0"/>
                        </linearGradient>
                        <linearGradient id="paint36_linear_0_1" x1="176.767" y1="116.522" x2="177.294" y2="133.014" gradientUnits="userSpaceOnUse">
                        <stop stop-color="#A1B8E3" stop-opacity="0"/>
                        <stop offset="1" stop-color="#1C2F84" stop-opacity="0.502"/>
                        </linearGradient>
                        <linearGradient id="paint37_linear_0_1" x1="166.138" y1="104.45" x2="162.681" y2="117.011" gradientUnits="userSpaceOnUse">
                        <stop stop-color="white" stop-opacity="0.502"/>
                        <stop offset="1" stop-color="#A1B8E3" stop-opacity="0"/>
                        </linearGradient>
                        <linearGradient id="paint38_linear_0_1" x1="224.153" y1="132.564" x2="227.666" y2="145.206" gradientUnits="userSpaceOnUse">
                        <stop stop-color="#47689B"/>
                        <stop offset="1" stop-color="#223762"/>
                        </linearGradient>
                        <linearGradient id="paint39_linear_0_1" x1="288.001" y1="103.709" x2="254.405" y2="147.047" gradientUnits="userSpaceOnUse">
                        <stop stop-color="#CFDDF3"/>
                        <stop offset="0.474" stop-color="#B3C7E9"/>
                        <stop offset="1" stop-color="#728FC5"/>
                        </linearGradient>
                        <linearGradient id="paint40_linear_0_1" x1="96.3657" y1="142.562" x2="73.7457" y2="142.562" gradientUnits="userSpaceOnUse">
                        <stop stop-color="#D9E5F6" stop-opacity="0.714"/>
                        <stop offset="1" stop-color="#B2C6EA"/>
                        </linearGradient>
                        <linearGradient id="paint41_linear_0_1" x1="101.454" y1="144.632" x2="84.7915" y2="133.197" gradientUnits="userSpaceOnUse">
                        <stop stop-color="#ACC5E9"/>
                        <stop offset="0.627" stop-color="#D3E3FB"/>
                        <stop offset="1" stop-color="#EAF2FF"/>
                        </linearGradient>
                        <linearGradient id="paint42_linear_0_1" x1="94.7917" y1="125.787" x2="94.2444" y2="134.858" gradientUnits="userSpaceOnUse">
                        <stop stop-color="#86A8D9"/>
                        <stop offset="1" stop-color="#BCD0F2"/>
                        </linearGradient>
                        <linearGradient id="paint43_linear_0_1" x1="80.0251" y1="93.7716" x2="99.8776" y2="111.632" gradientUnits="userSpaceOnUse">
                        <stop stop-color="#7AD945"/>
                        <stop offset="0.517" stop-color="#79D744"/>
                        <stop offset="1" stop-color="#48A614"/>
                        </linearGradient>
                        <linearGradient id="paint44_linear_0_1" x1="82.5401" y1="106.887" x2="85.39" y2="128.772" gradientUnits="userSpaceOnUse">
                        <stop stop-color="#B1FFBE"/>
                        <stop offset="0.444" stop-color="#7AD945"/>
                        <stop offset="1" stop-color="#48A614"/>
                        </linearGradient>
                        <linearGradient id="paint45_linear_0_1" x1="94.4414" y1="108.148" x2="107.641" y2="128.317" gradientUnits="userSpaceOnUse">
                        <stop stop-color="#7AD945"/>
                        <stop offset="0.444" stop-color="#7AD945"/>
                        <stop offset="1" stop-color="#48A614"/>
                        </linearGradient>
                        </defs>
                        </svg>