<svg width="16" height="16" viewBox="0 0 16 16" fill="none" xmlns="http://www.w3.org/2000/svg">
<g clip-path="url(#clip0_1452_8320)">
<g clip-path="url(#clip1_1452_8320)">
<path d="M0.292786 0.292997C0.480314 0.105526 0.734622 0.000210801 0.999786 0.000210801C1.26495 0.000210801 1.51926 0.105526 1.70679 0.292997L7.99979 6.586L14.2928 0.292997C14.385 0.197487 14.4954 0.121305 14.6174 0.0688959C14.7394 0.0164869 14.8706 -0.0110994 15.0034 -0.0122532C15.1362 -0.013407 15.2678 0.0118947 15.3907 0.0621756C15.5136 0.112456 15.6253 0.18671 15.7192 0.280602C15.8131 0.374495 15.8873 0.486147 15.9376 0.609043C15.9879 0.73194 16.0132 0.863619 16.012 0.996398C16.0109 1.12918 15.9833 1.2604 15.9309 1.3824C15.8785 1.50441 15.8023 1.61475 15.7068 1.707L9.41379 8L15.7068 14.293C15.8889 14.4816 15.9897 14.7342 15.9875 14.9964C15.9852 15.2586 15.88 15.5094 15.6946 15.6948C15.5092 15.8802 15.2584 15.9854 14.9962 15.9877C14.734 15.99 14.4814 15.8892 14.2928 15.707L7.99979 9.414L1.70679 15.707C1.51818 15.8892 1.26558 15.99 1.00339 15.9877C0.741189 15.9854 0.490376 15.8802 0.304968 15.6948C0.11956 15.5094 0.0143908 15.2586 0.0121124 14.9964C0.00983399 14.7342 0.110628 14.4816 0.292786 14.293L6.58579 8L0.292786 1.707C0.105315 1.51947 0 1.26516 0 0.999997C0 0.734833 0.105315 0.480525 0.292786 0.292997Z" fill="#6C757D"/>
</g>
</g>
<defs>
<clipPath id="clip0_1452_8320">
<rect width="16" height="16" fill="white"/>
</clipPath>
<clipPath id="clip1_1452_8320">
<rect width="16" height="16" fill="white"/>
</clipPath>
</defs>
</svg>
