<svg width="20" height="20" viewBox="0 0 20 20" fill="none" xmlns="http://www.w3.org/2000/svg">
<g clip-path="url(#clip0_1448_8305)">
<path d="M18 9.99918C18 12.1209 17.1571 14.1557 15.6569 15.656C14.1566 17.1563 12.1217 17.9992 10 17.9992C7.87827 17.9992 5.84344 17.1563 4.34315 15.656C2.84285 14.1557 2 12.1209 2 9.99918C2 7.87744 2.84285 5.84261 4.34315 4.34232C5.84344 2.84203 7.87827 1.99918 10 1.99918C12.1217 1.99918 14.1566 2.84203 15.6569 4.34232C17.1571 5.84261 18 7.87744 18 9.99918ZM14.03 6.96918C13.9586 6.89799 13.8735 6.84195 13.7799 6.80439C13.6863 6.76683 13.5861 6.74853 13.4853 6.75059C13.3845 6.75264 13.2851 6.77501 13.1932 6.81634C13.1012 6.85768 13.0185 6.91714 12.95 6.99118L9.477 11.4162L7.384 9.32218C7.24183 9.1897 7.05378 9.11757 6.85948 9.121C6.66518 9.12443 6.47979 9.20314 6.34238 9.34055C6.20497 9.47797 6.12625 9.66335 6.12283 9.85765C6.1194 10.052 6.19152 10.24 6.324 10.3822L8.97 13.0292C9.04128 13.1003 9.12616 13.1564 9.21958 13.194C9.313 13.2317 9.41305 13.2501 9.51375 13.2482C9.61444 13.2464 9.71374 13.2242 9.8057 13.1832C9.89766 13.1421 9.9804 13.0829 10.049 13.0092L14.041 8.01918C14.1771 7.87767 14.2523 7.68845 14.2504 7.49213C14.2485 7.29582 14.1698 7.10806 14.031 6.96918H14.03Z" fill="#0D6CF2"/>
</g>
<defs>
<clipPath id="clip0_1448_8305">
<rect width="16" height="16" fill="white" transform="translate(2 2)"/>
</clipPath>
</defs>
</svg>
