<svg width="16" height="16" viewBox="0 0 16 16" fill="none" xmlns="http://www.w3.org/2000/svg">
<g clip-path="url(#clip0_1335_10869)">
<path d="M14.4375 4.15625C14.5833 4.28125 14.6562 4.4375 14.6562 4.625C14.6771 4.8125 14.625 4.97917 14.5 5.125L8.59375 11.7188C8.42708 11.9062 8.22917 12 8 12C7.77083 12 7.57292 11.9062 7.40625 11.7188L1.5 5.125C1.375 4.97917 1.3125 4.8125 1.3125 4.625C1.33333 4.4375 1.41667 4.28125 1.5625 4.15625C1.6875 4.05208 1.84375 4.01042 2.03125 4.03125C2.21875 4.03125 2.375 4.09375 2.5 4.21875L8 10.4062L13.5 4.21875C13.625 4.09375 13.7812 4.03125 13.9688 4.03125C14.1562 4.01042 14.3125 4.05208 14.4375 4.15625Z" fill="#CED4DA"/>
</g>
<defs>
<clipPath id="clip0_1335_10869">
<rect width="16" height="16" fill="white"/>
</clipPath>
</defs>
</svg>
